<svg xmlns="http://www.w3.org/2000/svg" xmlns:xlink="http://www.w3.org/1999/xlink" viewBox="0 0 500 500"><defs><clipPath id="freepik--clip-path--inject-181"><path d="M291.89,102a81.31,81.31,0,1,0,83.69,78.86A81.32,81.32,0,0,0,291.89,102Zm4.39,147.86a66.61,66.61,0,1,1,64.61-68.57A66.61,66.61,0,0,1,296.28,249.83Z" style="fill:#7E57C2;stroke:#263238;stroke-linecap:round;stroke-linejoin:round"></path></clipPath><clipPath id="freepik--clip-path-2--inject-181"><path d="M274.74,183.18a81.31,81.31,0,1,1-32.35-62.53,81.76,81.76,0,0,0-10.53,10.52,66.61,66.61,0,1,0,2.49,107A67.06,67.06,0,0,0,244.9,227.9a66.54,66.54,0,0,0-2-87,66.13,66.13,0,0,1,10.55-10.27A81,81,0,0,1,274.74,183.18Z" style="fill:#7E57C2;stroke:#263238;stroke-linecap:round;stroke-linejoin:round"></path></clipPath><clipPath id="freepik--clip-path-3--inject-181"><path d="M146.71,307.48s-.15,5.72-.61,16.37-.78,57.6.15,71.66,7.72,45.25,7.88,46,4.17,2.93,8,2.31a5.11,5.11,0,0,0,2.78-1.69c.77-1.24,9.57-73.51,9.57-73.51s5,64.65,5.8,69.59,1.54,6.33,2.47,6.8,5.56.77,7.57-.62,6.86-29.91,7.63-39.94,5.11-46.72,4.9-60.32c-.27-18.66-1.39-32.58-1.39-32.58S166.48,315.05,146.71,307.48Z" style="fill:#7E57C2;stroke:#263238;stroke-linecap:round;stroke-linejoin:round"></path></clipPath><clipPath id="freepik--clip-path-4--inject-181"><path d="M169.29,233.22s.4,10.33,1.61,16.1,3.76,11.54,6.57,9.26,8.45-16.64,8.72-17.17-5.77-.81-10.06-4A30.86,30.86,0,0,0,169.29,233.22Z" style="fill:#fff;stroke:#263238;stroke-linecap:round;stroke-linejoin:round"></path></clipPath><clipPath id="freepik--clip-path-5--inject-181"><path d="M169.68,197.24c-4.84,4.63-6.34,10.7-6.74,17.35,0,.56-.5,2.86-.17,3.27,0,0-2.41-3.07-4,.14s0,9.36,1.6,10.69a3.07,3.07,0,0,0,3.48.14,20.09,20.09,0,0,0,8.95,11.49c5.92,3.51,16.13,3.9,21-1.76,3.11-3.64,3.13-9.48,2.95-14-.06-1.63.78-3.35,1.34-4.84,1.8-4.83,3.33-10.15,1.9-15.27a18.35,18.35,0,0,0-11.25-12c-6.17-2.25-13.1-.25-18,3.87C170.34,196.62,170,196.93,169.68,197.24Z" style="fill:#fff;stroke:#263238;stroke-linecap:round;stroke-linejoin:round"></path></clipPath><clipPath id="freepik--clip-path-6--inject-181"><path d="M185.85,240.62s-9-.62-9.92,6.66,4.8,8.53,4.8,8.53-2.63,5.11-.46,8.52,7.9,4.65,10.85,1.24l19.52,3.1A13.2,13.2,0,0,0,221,267.12c5.42-3.26,5.11-9.76,3.25-13.48a6.5,6.5,0,0,0-6-3.41s2.94-11-4.49-16.74-14.41.31-14.41.31S189.88,227.76,185.85,240.62Z" style="fill:#fff;stroke:#263238;stroke-linecap:round;stroke-linejoin:round"></path></clipPath><clipPath id="freepik--clip-path-7--inject-181"><path d="M204,408.53s7.88,35.91,8.33,37.73-6.82,4.54-8.94,7.12.61,2.73,4.85,2.73,9.24-4.55,10.76-5.31,2.27-.75,2.27-4.24-.91-33.64-.91-33.64S209,410.8,204,408.53Z" style="fill:#fff;stroke:#263238;stroke-linecap:round;stroke-linejoin:round"></path></clipPath><clipPath id="freepik--clip-path-8--inject-181"><path d="M228.89,414.13l3.33,35.92s-6.36,3.63-7,5.91,2.58,1.81,7.12.45a19,19,0,0,0,9.25-5.91c1.36-1.82,1.06-5.61,1.06-8.49s.6-31.51.6-31.51S235.1,414.89,228.89,414.13Z" style="fill:#fff;stroke:#263238;stroke-linecap:round;stroke-linejoin:round"></path></clipPath><clipPath id="freepik--clip-path-9--inject-181"><path d="M210.64,271.92s-8.52.93-10.69,6-1.24,11.47-1.4,13.64-4,7.43-3.25,14.41,5.11,12.86,5,14.25-5.89,22.16-7.13,34.55,2.32,50.67,2.32,50.67,12.55,9.91,28.67,10.38,27-4.8,27-4.8,4-40,2.79-55.78S243.49,315,242.71,310s-5-22.46-13.48-30.52S212.5,271.3,210.64,271.92Z" style="fill:#7E57C2;stroke:#263238;stroke-linecap:round;stroke-linejoin:round"></path></clipPath><clipPath id="freepik--clip-path-10--inject-181"><path d="M205.37,276.41s2.17,6,2,8.83-.77,7.91,2,4.65,6.82-10.84,6.82-14.25-3.57-11.93-3.57-11.93-2,5.58-3.87,8.21S205.37,276.41,205.37,276.41Z" style="fill:#fff;stroke:#263238;stroke-linecap:round;stroke-linejoin:round"></path></clipPath><clipPath id="freepik--clip-path-11--inject-181"><path d="M213.12,318.18s-10.44-7.31-15.67-13.36-5.84-6.89-5.84-6.89.41-6.48.21-8.78.2-6.26.2-8.35-1.25-1.46-2.08-.21a9.37,9.37,0,0,0-1.05,3.55s-4.06-5.81-5.16-7-1.87-.33-1.87.33a4.35,4.35,0,0,0,.33,1.43s-1.32-2-2.42-1.65-1,2.09-.77,2.53.55,1,.55,1-1.65-1.32-2.09-.11a3.38,3.38,0,0,0,.55,3.08,4.52,4.52,0,0,1,.77,1.32,2,2,0,0,0-1,1.65c0,1.1,1.43,4.18,3.3,7.7a17.43,17.43,0,0,0,5.28,5.72s8.47,18.16,15.41,26.19,12.76,10.67,17.82,8.58,5.94-9.13,5.94-9.13Z" style="fill:#fff;stroke:#263238;stroke-linecap:round;stroke-linejoin:round"></path></clipPath><clipPath id="freepik--clip-path-12--inject-181"><path d="M232.54,292.08c2.51,17.75-3.55,35.71-3.55,35.71-14.41-2.09-17.33-10.86-17.33-10.86,1.25-4,4.8-25.48,4.8-25.48a9.08,9.08,0,0,1,9.21-3.78" style="fill:#7E57C2;stroke:#263238;stroke-linecap:round;stroke-linejoin:round"></path></clipPath><clipPath id="freepik--clip-path-13--inject-181"><path d="M251.08,411.06s4-40,2.79-55.78c-.07-.87-.17-1.76-.28-2.68-5.84,3-15.05,5.78-29.54,6.59-17.1.95-26.13-1.65-30.9-4.55,0,.06,0,.12,0,.17-1.24,12.4,2.32,50.67,2.32,50.67s12.55,9.91,28.67,10.38S251.08,411.06,251.08,411.06Z" style="fill:#263238;stroke:#263238;stroke-linecap:round;stroke-linejoin:round"></path></clipPath><clipPath id="freepik--clip-path-14--inject-181"><path d="M185.38,256.12s3,9.91,7.29,15.18,8.67,7.75,13.48,5.42,7-8.21,7-10.07v-3.87s3.41-.47,3.41-4.65-2.64-5.42-3.72-4.49a10.53,10.53,0,0,0-2,2.94,42.4,42.4,0,0,1-3.25-3.56,5.46,5.46,0,0,1-.62-1.71s-6.82-.15-9.3-1.24a23.93,23.93,0,0,1-5.57-4.18S192.05,254.57,185.38,256.12Z" style="fill:#fff;stroke:#263238;stroke-linecap:round;stroke-linejoin:round"></path></clipPath></defs><g id="freepik--background-simple--inject-181"><path d="M66.14,200.47s-16,68.58,28.65,128.33,122.64,83,185.27,103.45,121.31-3.16,143.32-55.8-22.45-81-32.25-149.75-2-88.56-47.7-140.91-139.55-51.1-203,2.65S66.14,200.47,66.14,200.47Z" style="fill:#7E57C2"></path><path d="M66.14,200.47s-16,68.58,28.65,128.33,122.64,83,185.27,103.45,121.31-3.16,143.32-55.8-22.45-81-32.25-149.75-2-88.56-47.7-140.91-139.55-51.1-203,2.65S66.14,200.47,66.14,200.47Z" style="fill:#fff;opacity:0.7000000000000001"></path></g><g id="freepik--Floor--inject-181"><path d="M381.83,453.81c0,4.32-70.37,7.81-157.18,7.81s-157.18-3.49-157.18-7.81,70.37-7.8,157.18-7.8S381.83,449.5,381.83,453.81Z" style="fill:#7E57C2"></path><path d="M381.83,453.81c0,4.32-70.37,7.81-157.18,7.81s-157.18-3.49-157.18-7.81,70.37-7.8,157.18-7.8S381.83,449.5,381.83,453.81Z" style="fill:#fff;opacity:0.6000000000000001"></path></g><g id="freepik--Plants--inject-181"><path d="M323.08,284.78c-.05,0,.7-3.73.77-4,.87-2.66,4.1-7.3,7.24-7.3a3.71,3.71,0,0,1,3.56,4.22c-.22,2.2-2.2,4.08-4,5.16C328.56,284.17,323.09,284.78,323.08,284.78Z" style="fill:#7E57C2"></path><path d="M317,259.66c2.95,1.06,4.42,6.52,4.33,9.32,0,.24-.57,4-.62,4l-.06,0c.24.86.49,1.78.73,2.8.45,1.88.93,4,1.3,6.36a63.6,63.6,0,0,1,.83,7.64,48.28,48.28,0,0,1-.29,8.6s0,.07,0,.1c.38-.83,1.54-3.12,1.65-3.29,1.54-2.34,5.88-6,8.9-5.13a3.72,3.72,0,0,1,2.33,5c-.8,2.07-3.2,3.35-5.22,3.93-2.26.64-7.32-.12-7.72-.18a65.7,65.7,0,0,1-1.87,8.56c-.46,1.64-1,3.28-1.52,4.91.36-.71.68-1.34.74-1.42,1.54-2.34,5.88-6,8.9-5.13a3.72,3.72,0,0,1,2.33,5c-.8,2.06-3.2,3.35-5.22,3.92s-6.36,0-7.5-.14c-.22.62-.42,1.25-.64,1.87-1,3-2.08,6-3,8.94-.33,1-.62,2.08-.91,3.12.32-.63.59-1.16.64-1.23,1.54-2.35,5.88-6,8.91-5.13a3.7,3.7,0,0,1,2.32,5c-.8,2.06-3.2,3.35-5.21,3.92s-5.95.07-7.3-.12c-.27,1.07-.54,2.15-.75,3.2-.12.72-.3,1.4-.38,2.14s-.21,1.43-.31,2.14c-.14,1.37-.29,2.78-.4,4.12-.08.94-.13,1.83-.2,2.72.32-1,1-3.07,1.06-3.23a14.41,14.41,0,0,1,4.8-5.46,4.24,4.24,0,0,1,.4-.72,3.72,3.72,0,0,1,5.46-.85c2.37,2.05,1.78,7.67.69,10.25-.07.15-.95,1.73-1.52,2.71l1.27-1.58c.87-1.07,1.77-2.11,2.74-3.23l1.47-1.59c.48-.54,1.05-1.05,1.58-1.59,1.26-1.21,2.59-2.38,3.95-3.52-.93-.77-4.2-3.53-5.14-5.41s-1.61-4.51-.63-6.5a3.71,3.71,0,0,1,5.26-1.66c2.66,1.66,2.92,7.31,2.24,10,0,.17-.76,2.07-1.17,3.1.83-.69,1.65-1.37,2.51-2,2.47-1.91,5-3.77,7.6-5.64l2.33-1.73c-.34-.27-4.3-3.47-5.35-5.58-.94-1.87-1.61-4.51-.63-6.49a3.7,3.7,0,0,1,5.26-1.67c2.66,1.67,2.93,7.31,2.24,10-.05.2-1.08,2.92-1.38,3.6,1.71-1.27,3.4-2.55,5-3.88a67.3,67.3,0,0,0,6.2-5.78c-.16-.12-4.31-3.45-5.38-5.6-.94-1.87-1.62-4.51-.64-6.5a3.72,3.72,0,0,1,5.27-1.67c2.66,1.67,2.92,7.32,2.23,10,0,.18-.82,2.26-1.22,3.23l.15.1a47.13,47.13,0,0,0,5.09-6.84c.84-1.32,1.57-2.64,2.24-3.93-.83-.54-4.63-3.05-5.81-4.88s-2.1-4.31-1.34-6.39a3.7,3.7,0,0,1,5.05-2.23c2.82,1.36,3.71,6.95,3.32,9.72,0,.15-.4,1.66-.7,2.75.3-.58.62-1.19.89-1.76,1-2.13,1.84-4.15,2.55-5.94.39-1,.73-2,1-2.84-.54-.95-2.69-4.84-2.89-7s.12-4.79,1.75-6.29a3.71,3.71,0,0,1,5.51.34c1.88,2.51.09,7.88-1.53,10.16-.14.2-2.68,3-2.71,3l0-.06c-.27.85-.58,1.75-.93,2.74-.67,1.81-1.44,3.85-2.43,6a65.73,65.73,0,0,1-3.52,6.84,47.85,47.85,0,0,1-5,7l-.07.07c.78-.48,3-1.75,3.2-1.83,2.57-1.11,8.19-1.73,10.25.63a3.7,3.7,0,0,1-.82,5.46c-1.8,1.28-4.52,1-6.51.4-2.25-.71-6-4.14-6.35-4.41a66.15,66.15,0,0,1-6.28,6.11c-1.29,1.11-2.62,2.19-4,3.26.69-.39,1.31-.74,1.4-.78,2.58-1.11,8.2-1.73,10.26.63a3.7,3.7,0,0,1-.82,5.46c-1.81,1.28-4.52,1-6.52.4s-5.32-3.5-6.18-4.27L345,329.13c-2.52,1.93-5,3.84-7.45,5.79-.85.69-1.67,1.39-2.48,2.1l1.21-.68c2.58-1.1,8.2-1.73,10.26.64a3.71,3.71,0,0,1-.82,5.46c-1.81,1.28-4.52,1-6.52.39s-5-3.22-6-4.12c-.82.74-1.63,1.49-2.39,2.25-.5.53-1,1-1.5,1.57l-1.43,1.63c-.88,1.06-1.79,2.15-2.61,3.21-.58.74-1.12,1.45-1.67,2.16.84-.69,2.51-2,2.66-2.11,2.38-1.49,7.84-2.95,10.24-.93a3.71,3.71,0,0,1,0,5.52c-1.59,1.54-4.31,1.7-6.38,1.38-2.27-.35-6.39-3-6.9-3.37-.9,1.18-1.77,2.34-2.56,3.44-2.77,3.83-4.94,7.13-6.42,9.45l-.15.24-1.91-.93c.09-.15.19-.3.3-.46,1.55-2.31,3.8-5.59,6.68-9.4.91-1.21,1.91-2.47,2.94-3.77a39.45,39.45,0,0,1-3-3.68c-2.2.86-6.79.89-7.38.89-.1,1.49-.18,2.93-.23,4.29-.2,4.73-.19,8.67-.14,11.42,0,.11,0,.21,0,.32l-2.11-1c0-2.74.1-6.44.38-10.82.09-1.5.22-3.11.37-4.76-.58-.14-5.35-1.37-7.16-2.81-1.63-1.3-3.35-3.42-3.29-5.63a3.71,3.71,0,0,1,4.08-3.72c3.11.4,5.72,5.41,6.23,8.17,0,.16.16,2,.23,3.09.06-.67.12-1.32.19-2,.14-1.37.32-2.73.5-4.2.12-.7.23-1.42.35-2.14s.3-1.46.45-2.19c.37-1.71.84-3.42,1.35-5.13-1.2-.12-5.46-.62-7.28-1.67s-3.83-2.87-4.11-5.07a3.7,3.7,0,0,1,3.47-4.29c3.14-.08,6.47,4.48,7.4,7.13.06.16.5,2.13.73,3.22.31-1,.62-2.05,1-3.08,1-3,2.13-5.93,3.22-8.9q.51-1.37,1-2.73c-.42,0-5.49-.52-7.53-1.7-1.81-1-3.83-2.87-4.11-5.07a3.7,3.7,0,0,1,3.47-4.29c3.13-.08,6.47,4.49,7.4,7.13.07.2.71,3,.84,3.77.72-2,1.42-4,2-6a65.26,65.26,0,0,0,2-8.24c-.2,0-5.49-.5-7.58-1.7-1.81-1-3.83-2.88-4.11-5.08a3.7,3.7,0,0,1,3.47-4.29c3.14-.08,6.48,4.49,7.4,7.13.06.17.55,2.34.76,3.37h.18a47.77,47.77,0,0,0,.47-8.51c0-1.56-.15-3.06-.3-4.51-1,0-5.54,0-7.54-.86s-4.12-2.44-4.64-4.59a3.71,3.71,0,0,1,3-4.65c3.11-.42,6.92,3.75,8.13,6.27.07.14.58,1.61.94,2.69-.08-.66-.14-1.33-.23-2-.32-2.35-.75-4.48-1.15-6.37-.24-1.07-.48-2-.71-2.93-1-.5-4.91-2.55-6.26-4.22s-2.54-4.06-2-6.21A3.71,3.71,0,0,1,317,259.66Z" style="fill:#7E57C2"></path><path d="M373.7,308c-2.46-.1-7.35-2.62-7.36-2.62s2.64-2.72,2.83-2.88c2.19-1.74,7.44-3.83,10.06-2.09a3.71,3.71,0,0,1,.65,5.48C378.47,307.6,375.79,308.08,373.7,308Z" style="fill:#7E57C2"></path><g style="opacity:0.5"><path d="M323.08,284.78c-.05,0,.7-3.73.77-4,.87-2.66,4.1-7.3,7.24-7.3a3.71,3.71,0,0,1,3.56,4.22c-.22,2.2-2.2,4.08-4,5.16C328.56,284.17,323.09,284.78,323.08,284.78Z" style="fill:#fff"></path><path d="M317,259.66c2.95,1.06,4.42,6.52,4.33,9.32,0,.24-.57,4-.62,4l-.06,0c.24.86.49,1.78.73,2.8.45,1.88.93,4,1.3,6.36a63.6,63.6,0,0,1,.83,7.64,48.28,48.28,0,0,1-.29,8.6s0,.07,0,.1c.38-.83,1.54-3.12,1.65-3.29,1.54-2.34,5.88-6,8.9-5.13a3.72,3.72,0,0,1,2.33,5c-.8,2.07-3.2,3.35-5.22,3.93-2.26.64-7.32-.12-7.72-.18a65.7,65.7,0,0,1-1.87,8.56c-.46,1.64-1,3.28-1.52,4.91.36-.71.68-1.34.74-1.42,1.54-2.34,5.88-6,8.9-5.13a3.72,3.72,0,0,1,2.33,5c-.8,2.06-3.2,3.35-5.22,3.92s-6.36,0-7.5-.14c-.22.62-.42,1.25-.64,1.87-1,3-2.08,6-3,8.94-.33,1-.62,2.08-.91,3.12.32-.63.59-1.16.64-1.23,1.54-2.35,5.88-6,8.91-5.13a3.7,3.7,0,0,1,2.32,5c-.8,2.06-3.2,3.35-5.21,3.92s-5.95.07-7.3-.12c-.27,1.07-.54,2.15-.75,3.2-.12.72-.3,1.4-.38,2.14s-.21,1.43-.31,2.14c-.14,1.37-.29,2.78-.4,4.12-.08.94-.13,1.83-.2,2.72.32-1,1-3.07,1.06-3.23a14.41,14.41,0,0,1,4.8-5.46,4.24,4.24,0,0,1,.4-.72,3.72,3.72,0,0,1,5.46-.85c2.37,2.05,1.78,7.67.69,10.25-.07.15-.95,1.73-1.52,2.71l1.27-1.58c.87-1.07,1.77-2.11,2.74-3.23l1.47-1.59c.48-.54,1.05-1.05,1.58-1.59,1.26-1.21,2.59-2.38,3.95-3.52-.93-.77-4.2-3.53-5.14-5.41s-1.61-4.51-.63-6.5a3.71,3.71,0,0,1,5.26-1.66c2.66,1.66,2.92,7.31,2.24,10,0,.17-.76,2.07-1.17,3.1.83-.69,1.65-1.37,2.51-2,2.47-1.91,5-3.77,7.6-5.64l2.33-1.73c-.34-.27-4.3-3.47-5.35-5.58-.94-1.87-1.61-4.51-.63-6.49a3.7,3.7,0,0,1,5.26-1.67c2.66,1.67,2.93,7.31,2.24,10-.05.2-1.08,2.92-1.38,3.6,1.71-1.27,3.4-2.55,5-3.88a67.3,67.3,0,0,0,6.2-5.78c-.16-.12-4.31-3.45-5.38-5.6-.94-1.87-1.62-4.51-.64-6.5a3.72,3.72,0,0,1,5.27-1.67c2.66,1.67,2.92,7.32,2.23,10,0,.18-.82,2.26-1.22,3.23l.15.1a47.13,47.13,0,0,0,5.09-6.84c.84-1.32,1.57-2.64,2.24-3.93-.83-.54-4.63-3.05-5.81-4.88s-2.1-4.31-1.34-6.39a3.7,3.7,0,0,1,5.05-2.23c2.82,1.36,3.71,6.95,3.32,9.72,0,.15-.4,1.66-.7,2.75.3-.58.62-1.19.89-1.76,1-2.13,1.84-4.15,2.55-5.94.39-1,.73-2,1-2.84-.54-.95-2.69-4.84-2.89-7s.12-4.79,1.75-6.29a3.71,3.71,0,0,1,5.51.34c1.88,2.51.09,7.88-1.53,10.16-.14.2-2.68,3-2.71,3l0-.06c-.27.85-.58,1.75-.93,2.74-.67,1.81-1.44,3.85-2.43,6a65.73,65.73,0,0,1-3.52,6.84,47.85,47.85,0,0,1-5,7l-.07.07c.78-.48,3-1.75,3.2-1.83,2.57-1.11,8.19-1.73,10.25.63a3.7,3.7,0,0,1-.82,5.46c-1.8,1.28-4.52,1-6.51.4-2.25-.71-6-4.14-6.35-4.41a66.15,66.15,0,0,1-6.28,6.11c-1.29,1.11-2.62,2.19-4,3.26.69-.39,1.31-.74,1.4-.78,2.58-1.11,8.2-1.73,10.26.63a3.7,3.7,0,0,1-.82,5.46c-1.81,1.28-4.52,1-6.52.4s-5.32-3.5-6.18-4.27L345,329.13c-2.52,1.93-5,3.84-7.45,5.79-.85.69-1.67,1.39-2.48,2.1l1.21-.68c2.58-1.1,8.2-1.73,10.26.64a3.71,3.71,0,0,1-.82,5.46c-1.81,1.28-4.52,1-6.52.39s-5-3.22-6-4.12c-.82.74-1.63,1.49-2.39,2.25-.5.53-1,1-1.5,1.57l-1.43,1.63c-.88,1.06-1.79,2.15-2.61,3.21-.58.74-1.12,1.45-1.67,2.16.84-.69,2.51-2,2.66-2.11,2.38-1.49,7.84-2.95,10.24-.93a3.71,3.71,0,0,1,0,5.52c-1.59,1.54-4.31,1.7-6.38,1.38-2.27-.35-6.39-3-6.9-3.37-.9,1.18-1.77,2.34-2.56,3.44-2.77,3.83-4.94,7.13-6.42,9.45l-.15.24-1.91-.93c.09-.15.19-.3.3-.46,1.55-2.31,3.8-5.59,6.68-9.4.91-1.21,1.91-2.47,2.94-3.77a39.45,39.45,0,0,1-3-3.68c-2.2.86-6.79.89-7.38.89-.1,1.49-.18,2.93-.23,4.29-.2,4.73-.19,8.67-.14,11.42,0,.11,0,.21,0,.32l-2.11-1c0-2.74.1-6.44.38-10.82.09-1.5.22-3.11.37-4.76-.58-.14-5.35-1.37-7.16-2.81-1.63-1.3-3.35-3.42-3.29-5.63a3.71,3.71,0,0,1,4.08-3.72c3.11.4,5.72,5.41,6.23,8.17,0,.16.16,2,.23,3.09.06-.67.12-1.32.19-2,.14-1.37.32-2.73.5-4.2.12-.7.23-1.42.35-2.14s.3-1.46.45-2.19c.37-1.71.84-3.42,1.35-5.13-1.2-.12-5.46-.62-7.28-1.67s-3.83-2.87-4.11-5.07a3.7,3.7,0,0,1,3.47-4.29c3.14-.08,6.47,4.48,7.4,7.13.06.16.5,2.13.73,3.22.31-1,.62-2.05,1-3.08,1-3,2.13-5.93,3.22-8.9q.51-1.37,1-2.73c-.42,0-5.49-.52-7.53-1.7-1.81-1-3.83-2.87-4.11-5.07a3.7,3.7,0,0,1,3.47-4.29c3.13-.08,6.47,4.49,7.4,7.13.07.2.71,3,.84,3.77.72-2,1.42-4,2-6a65.26,65.26,0,0,0,2-8.24c-.2,0-5.49-.5-7.58-1.7-1.81-1-3.83-2.88-4.11-5.08a3.7,3.7,0,0,1,3.47-4.29c3.14-.08,6.48,4.49,7.4,7.13.06.17.55,2.34.76,3.37h.18a47.77,47.77,0,0,0,.47-8.51c0-1.56-.15-3.06-.3-4.51-1,0-5.54,0-7.54-.86s-4.12-2.44-4.64-4.59a3.71,3.71,0,0,1,3-4.65c3.11-.42,6.92,3.75,8.13,6.27.07.14.58,1.61.94,2.69-.08-.66-.14-1.33-.23-2-.32-2.35-.75-4.48-1.15-6.37-.24-1.07-.48-2-.71-2.93-1-.5-4.91-2.55-6.26-4.22s-2.54-4.06-2-6.21A3.71,3.71,0,0,1,317,259.66Z" style="fill:#fff"></path><path d="M373.7,308c-2.46-.1-7.35-2.62-7.36-2.62s2.64-2.72,2.83-2.88c2.19-1.74,7.44-3.83,10.06-2.09a3.71,3.71,0,0,1,.65,5.48C378.47,307.6,375.79,308.08,373.7,308Z" style="fill:#fff"></path></g><path d="M345.09,369.35s-14.87-35.84-23.19-34.28,14.27,57.14,14.27,57.14-26.17-49.35-44-49.35,6.55,54.54,29.14,72.72c0,0-35.68-38.44-56.49-30.12s41.63,47.27,41.63,47.27-36.28-11.43-32.11-2.6,15.46,10.39,15.46,10.39l-41,2.08H391.47l-32.11-3.12s33.29-16.62,24.38-23.38-28.55,7.79-28.55,7.79,33.9-37.4,27.36-51.42-35.68,25.45-35.68,25.45,23.78-50.38,19-59.22S345.09,369.35,345.09,369.35Z" style="fill:#7E57C2"></path><path d="M345.09,369.35s-14.87-35.84-23.19-34.28,14.27,57.14,14.27,57.14-26.17-49.35-44-49.35,6.55,54.54,29.14,72.72c0,0-35.68-38.44-56.49-30.12s41.63,47.27,41.63,47.27-36.28-11.43-32.11-2.6,15.46,10.39,15.46,10.39l-41,2.08H391.47l-32.11-3.12s33.29-16.62,24.38-23.38-28.55,7.79-28.55,7.79,33.9-37.4,27.36-51.42-35.68,25.45-35.68,25.45,23.78-50.38,19-59.22S345.09,369.35,345.09,369.35Z" style="fill:#fff;opacity:0.4"></path><path d="M349.84,371.24c-13.08,38.65-13.08,66-13.08,66s15.46.6,31.52-11.29" style="fill:none;stroke:#263238;stroke-linecap:round;stroke-linejoin:round"></path><path d="M343.3,392.05a231.27,231.27,0,0,0-10.7-33.89" style="fill:none;stroke:#263238;stroke-linecap:round;stroke-linejoin:round"></path><path d="M304.65,369.46,338,418.81s22.6-19,30.33-29.73" style="fill:none;stroke:#263238;stroke-linecap:round;stroke-linejoin:round"></path><path d="M337.36,430.7S302.27,414.05,288,404.54" style="fill:none;stroke:#263238;stroke-linecap:round;stroke-linejoin:round"></path></g><g id="freepik--Rings--inject-181"><path d="M291.89,102a81.31,81.31,0,1,0,83.69,78.86A81.32,81.32,0,0,0,291.89,102Zm4.39,147.86a66.61,66.61,0,1,1,64.61-68.57A66.61,66.61,0,0,1,296.28,249.83Z" style="fill:#7E57C2"></path><g style="clip-path:url(#freepik--clip-path--inject-181)"><path d="M314.88,254.67A72.84,72.84,0,1,0,222,210.19,72.85,72.85,0,0,0,314.88,254.67Zm-22.56-138a66.61,66.61,0,1,1-64.6,68.56A66.62,66.62,0,0,1,292.32,116.66Z" style="opacity:0.30000000000000004"></path><path d="M364.33,152.28a78.3,78.3,0,0,0-28.09-32.15" style="fill:none;stroke:#fff;stroke-linecap:round;stroke-linejoin:round;stroke-width:3px"></path><path d="M329.49,116.21a77.4,77.4,0,0,0-9.65-4.18" style="fill:none;stroke:#fff;stroke-linecap:round;stroke-linejoin:round;stroke-width:3px"></path></g><path d="M291.89,102a81.31,81.31,0,1,0,83.69,78.86A81.32,81.32,0,0,0,291.89,102Zm4.39,147.86a66.61,66.61,0,1,1,64.61-68.57A66.61,66.61,0,0,1,296.28,249.83Z" style="fill:none;stroke:#263238;stroke-linecap:round;stroke-linejoin:round"></path><path d="M274.74,183.18a81.31,81.31,0,1,1-32.35-62.53,81.76,81.76,0,0,0-10.53,10.52,66.61,66.61,0,1,0,2.49,107A67.06,67.06,0,0,0,244.9,227.9a66.54,66.54,0,0,0-2-87,66.13,66.13,0,0,1,10.55-10.27A81,81,0,0,1,274.74,183.18Z" style="fill:#7E57C2"></path><g style="clip-path:url(#freepik--clip-path-2--inject-181)"><path d="M256.62,160.25a71.45,71.45,0,0,0-6-12.83,34.92,34.92,0,0,1,9.79-8,80.6,80.6,0,0,0-7-8.74,67.06,67.06,0,0,0-8.78,8.23h0c-.6.67-1.2,1.34-1.77,2,.6.66,1.18,1.33,1.75,2,.42.51.83,1,1.24,1.55.12.16.25.31.37.46.5.66,1,1.33,1.48,2l0,0c.5.71,1,1.42,1.46,2.14h0a66.51,66.51,0,0,1-4.3,78.75,67.06,67.06,0,0,1-10.55,10.28,66.62,66.62,0,1,1-2.49-107c.75-.91,1.53-1.79,2.32-2.66a71.21,71.21,0,1,0,22.44,31.74Z" style="opacity:0.30000000000000004"></path></g><path d="M274.74,183.18a81.31,81.31,0,1,1-32.35-62.53,81.76,81.76,0,0,0-10.53,10.52,66.61,66.61,0,1,0,2.49,107A67.06,67.06,0,0,0,244.9,227.9a66.54,66.54,0,0,0-2-87,66.13,66.13,0,0,1,10.55-10.27A81,81,0,0,1,274.74,183.18Z" style="fill:none;stroke:#263238;stroke-linecap:round;stroke-linejoin:round"></path><path d="M264,216.33A78.26,78.26,0,0,0,269.4,174" style="fill:none;stroke:#fff;stroke-linecap:round;stroke-linejoin:round;stroke-width:3px"></path><path d="M267.86,166.33a78.27,78.27,0,0,0-3.28-10" style="fill:none;stroke:#fff;stroke-linecap:round;stroke-linejoin:round;stroke-width:3px"></path></g><g id="freepik--Characters--inject-181"><path d="M192.23,242.79a61.55,61.55,0,0,1,14.41,13.78c6.06,8.36,11.07,33.84,11.07,38.64s-.83,7.94-5.43,9.4-6.47.21-9.4-6.06-7.8-42.45-10.27-48.48S189.1,242.58,192.23,242.79Z" style="fill:#263238;stroke:#263238;stroke-linecap:round;stroke-linejoin:round"></path><path d="M216.39,280.24a8.41,8.41,0,0,0-3.2,2.79c-.29.47-7.66,14.76-8.36,19.35a6.56,6.56,0,0,0,9.75,6.54c5.43-2.92,9.88-14.75,10.58-19.21s-1-6.12-3.06-7.66S218.2,279.83,216.39,280.24Z" style="fill:#263238;stroke:#263238;stroke-linecap:round;stroke-linejoin:round"></path><path d="M107.32,334.9c-.27-7.82,4.73-14.58,12.75-10.91,6.53,3,6.11,11.92,6.43,18.12.49,9.79,5,110.53,5,110.53" style="fill:none;stroke:#263238;stroke-linecap:round;stroke-linejoin:round;stroke-width:5px"></path><path d="M155.21,441.78s-10.57,5.41-12,8.89,6.18,4.77,10.69,2.19,10.18-6.7,10.44-11.34S155.21,441.78,155.21,441.78Z" style="fill:#263238;stroke:#263238;stroke-linecap:round;stroke-linejoin:round"></path><path d="M190.5,443.27s12.11,6.57,11.72,9.15-4.38,2.7-10.18,1.16-11.21-5.41-10.82-9.28S190.5,443.27,190.5,443.27Z" style="fill:#263238;stroke:#263238;stroke-linecap:round;stroke-linejoin:round"></path><path d="M146.71,307.48s-.15,5.72-.61,16.37-.78,57.6.15,71.66,7.72,45.25,7.88,46,4.17,2.93,8,2.31a5.11,5.11,0,0,0,2.78-1.69c.77-1.24,9.57-73.51,9.57-73.51s5,64.65,5.8,69.59,1.54,6.33,2.47,6.8,5.56.77,7.57-.62,6.86-29.91,7.63-39.94,5.11-46.72,4.9-60.32c-.27-18.66-1.39-32.58-1.39-32.58S166.48,315.05,146.71,307.48Z" style="fill:#7E57C2"></path><g style="clip-path:url(#freepik--clip-path-3--inject-181)"><path d="M146.71,307.48s-.15,5.72-.61,16.37-.78,57.6.15,71.66,7.72,45.25,7.88,46,4.17,2.93,8,2.31a5.11,5.11,0,0,0,2.78-1.69c.77-1.24,9.57-73.51,9.57-73.51s5,64.65,5.8,69.59,1.54,6.33,2.47,6.8,5.56.77,7.57-.62,6.86-29.91,7.63-39.94,5.11-46.72,4.9-60.32c-.27-18.66-1.39-32.58-1.39-32.58S166.48,315.05,146.71,307.48Z" style="opacity:0.30000000000000004"></path></g><path d="M146.71,307.48s-.15,5.72-.61,16.37-.78,57.6.15,71.66,7.72,45.25,7.88,46,4.17,2.93,8,2.31a5.11,5.11,0,0,0,2.78-1.69c.77-1.24,9.57-73.51,9.57-73.51s5,64.65,5.8,69.59,1.54,6.33,2.47,6.8,5.56.77,7.57-.62,6.86-29.91,7.63-39.94,5.11-46.72,4.9-60.32c-.27-18.66-1.39-32.58-1.39-32.58S166.48,315.05,146.71,307.48Z" style="fill:none;stroke:#263238;stroke-linecap:round;stroke-linejoin:round"></path><polyline points="174.51 368.64 176.81 344.98 176.24 323.11" style="fill:none;stroke:#263238;stroke-linecap:round;stroke-linejoin:round"></polyline><path d="M176.81,345s2.1-1.14,2.29-4.56.19-16,.19-16" style="fill:none;stroke:#263238;stroke-linecap:round;stroke-linejoin:round"></path><path d="M159.51,321.4s-2.85,20.35-2.85,26.43" style="fill:none;stroke:#263238;stroke-linecap:round;stroke-linejoin:round"></path><line x1="162.55" y1="322.16" x2="162.55" y2="343.46" style="fill:none;stroke:#263238;stroke-linecap:round;stroke-linejoin:round"></line><path d="M146.77,304.86s-1,6.27-.19,8.75,9.51,5.89,20.54,7.41,23.19.19,29.28-.95,5.7-5.89,6.08-8.56.57,1.91-17.87.19S151.33,304.1,146.77,304.86Z" style="fill:#fff;stroke:#263238;stroke-linecap:round;stroke-linejoin:round"></path><path d="M163.62,236.53A59.23,59.23,0,0,0,145,250.94c-8.35,9.81-11.9,45.73-11.9,45.73s-13.65,13.47-13.86,17.43,6.55,9.1,14.07,7.63,13.57-12.53,13.57-12.53,6.69,5.22,13.37,5.64,34,4,40.93-1.46,4.81-33.41,1-50.33S183.88,226.92,163.62,236.53Z" style="fill:#263238;stroke:#263238;stroke-linecap:round;stroke-linejoin:round"></path><path d="M146,296.93c.66-9.75,5.18-35.21,5.18-35.21" style="fill:none;stroke:#fff;stroke-linecap:round;stroke-linejoin:round"></path><path d="M146.08,306.54s-.39.19-.26-5.63" style="fill:none;stroke:#fff;stroke-linecap:round;stroke-linejoin:round"></path><path d="M133.13,296.67s2-3.68,7.72-1.76" style="fill:none;stroke:#fff;stroke-linecap:round;stroke-linejoin:round"></path><path d="M131.63,323.39a7.66,7.66,0,0,0-2.36-9.27,10.11,10.11,0,0,0-2.8-1.56c-3.84-1.3-11.69,2.05-16.63,6.69s.11,11.09,1.83,12.25c.92.62,6.76,3.16,9.32.56a4.72,4.72,0,0,0,1.34-5.2s1.19,5.09,5.42.56C129.62,325.41,130.86,325,131.63,323.39Z" style="fill:#fff;stroke:#263238;stroke-linecap:round;stroke-linejoin:round"></path><path d="M112.33,331.61s-1.87-5.09-1.78-8.39,4.15-6.11,4.15-6.11" style="fill:none;stroke:#263238;stroke-linecap:round;stroke-linejoin:round"></path><path d="M115,332.8s-1.53-7.21-1-9.75,5.17-5.85,5.17-5.85" style="fill:none;stroke:#263238;stroke-linecap:round;stroke-linejoin:round"></path><path d="M118,333.14s-1.44-8.4-.43-10.18,4.58-4.75,4.58-4.75" style="fill:none;stroke:#263238;stroke-linecap:round;stroke-linejoin:round"></path><path d="M122.33,326.86s-.76-2.12,2.54-4.49a5.8,5.8,0,0,0,2.29-3.9" style="fill:none;stroke:#263238;stroke-linecap:round;stroke-linejoin:round"></path><path d="M168.75,231.48a7.8,7.8,0,0,0-4.69,2.82c-2.15,2.54-1.21,6-.81,9.92s1.21,13.69,1.21,13.69,4.16-5.1,6.71-5.5,7.64,0,8.45.67,6.44,7.65,6.44,7.65,3.49-9.26,1.34-18.39S174,230,168.75,231.48Z" style="fill:#fff;stroke:#263238;stroke-linecap:round;stroke-linejoin:round"></path><path d="M169.29,233.22s.4,10.33,1.61,16.1,3.76,11.54,6.57,9.26,8.45-16.64,8.72-17.17-5.77-.81-10.06-4A30.86,30.86,0,0,0,169.29,233.22Z" style="fill:#fff"></path><g style="clip-path:url(#freepik--clip-path-4--inject-181)"><path d="M169.29,233.22s.4,10.33,1.61,16.1,3.76,11.54,6.57,9.26,8.45-16.64,8.72-17.17-5.77-.81-10.06-4A30.86,30.86,0,0,0,169.29,233.22Z" style="fill:#7E57C2;stroke:#263238;stroke-linecap:round;stroke-linejoin:round"></path><path d="M169.29,233.22s.4,10.33,1.61,16.1,3.76,11.54,6.57,9.26,8.45-16.64,8.72-17.17-5.77-.81-10.06-4A30.86,30.86,0,0,0,169.29,233.22Z" style="fill:#fff;opacity:0.5"></path></g><path d="M169.29,233.22s.4,10.33,1.61,16.1,3.76,11.54,6.57,9.26,8.45-16.64,8.72-17.17-5.77-.81-10.06-4A30.86,30.86,0,0,0,169.29,233.22Z" style="fill:none;stroke:#263238;stroke-linecap:round;stroke-linejoin:round"></path><path d="M169.68,197.24c-4.84,4.63-6.34,10.7-6.74,17.35,0,.56-.5,2.86-.17,3.27,0,0-2.41-3.07-4,.14s0,9.36,1.6,10.69a3.07,3.07,0,0,0,3.48.14,20.09,20.09,0,0,0,8.95,11.49c5.92,3.51,16.13,3.9,21-1.76,3.11-3.64,3.13-9.48,2.95-14-.06-1.63.78-3.35,1.34-4.84,1.8-4.83,3.33-10.15,1.9-15.27a18.35,18.35,0,0,0-11.25-12c-6.17-2.25-13.1-.25-18,3.87C170.34,196.62,170,196.93,169.68,197.24Z" style="fill:#fff"></path><g style="clip-path:url(#freepik--clip-path-5--inject-181)"><path d="M189.4,241.66a30.84,30.84,0,0,0-6.86-.67c-11,0-16-8-15.17-14.34s6.62-10.47,8.55-21.5c1.18-6.77-1-9.49-2.79-10.58a22.21,22.21,0,0,0-2.44,1.76c-.35.29-.69.6-1,.91-4.84,4.63-6.34,10.7-6.74,17.35,0,.56-.5,2.86-.17,3.27,0,0-2.41-3.07-4,.14s0,9.36,1.6,10.69a3.07,3.07,0,0,0,3.48.14,20.09,20.09,0,0,0,8.95,11.49C177.26,243,184.19,243.84,189.4,241.66Z" style="fill:#7E57C2"></path><path d="M189.4,241.66a30.84,30.84,0,0,0-6.86-.67c-11,0-16-8-15.17-14.34s6.62-10.47,8.55-21.5c1.18-6.77-1-9.49-2.79-10.58a22.21,22.21,0,0,0-2.44,1.76c-.35.29-.69.6-1,.91-4.84,4.63-6.34,10.7-6.74,17.35,0,.56-.5,2.86-.17,3.27,0,0-2.41-3.07-4,.14s0,9.36,1.6,10.69a3.07,3.07,0,0,0,3.48.14,20.09,20.09,0,0,0,8.95,11.49C177.26,243,184.19,243.84,189.4,241.66Z" style="fill:#fff;opacity:0.5"></path></g><path d="M169.68,197.24c-4.84,4.63-6.34,10.7-6.74,17.35,0,.56-.5,2.86-.17,3.27,0,0-2.41-3.07-4,.14s0,9.36,1.6,10.69a3.07,3.07,0,0,0,3.48.14,20.09,20.09,0,0,0,8.95,11.49c5.92,3.51,16.13,3.9,21-1.76,3.11-3.64,3.13-9.48,2.95-14-.06-1.63.78-3.35,1.34-4.84,1.8-4.83,3.33-10.15,1.9-15.27a18.35,18.35,0,0,0-11.25-12c-6.17-2.25-13.1-.25-18,3.87C170.34,196.62,170,196.93,169.68,197.24Z" style="fill:none;stroke:#263238;stroke-linecap:round;stroke-linejoin:round"></path><path d="M191,218.15s-2.3,3.55-2.3,6.26,1,6.06-1.25,6.27a3.58,3.58,0,0,1-3.34-2.09" style="fill:none;stroke:#263238;stroke-linecap:round;stroke-linejoin:round"></path><path d="M176.78,220.65a7.82,7.82,0,0,1,5.85,1.88" style="fill:none;stroke:#263238;stroke-linecap:round;stroke-linejoin:round"></path><path d="M183.65,200.94s4.65-4.27,13.45.77" style="fill:none;stroke:#263238;stroke-linecap:round;stroke-linejoin:round"></path><path d="M180.8,197.7s3.36-4.78,11.25-1.68" style="fill:none;stroke:#263238;stroke-linecap:round;stroke-linejoin:round"></path><path d="M189.94,224.62s3.13-1.67,5,.21" style="fill:none;stroke:#263238;stroke-linecap:round;stroke-linejoin:round"></path><path d="M182.21,224.62s-3.34,3.13-6.89,1.26" style="fill:none;stroke:#263238;stroke-linecap:round;stroke-linejoin:round"></path><path d="M190.14,226.29a4.56,4.56,0,0,0,4.18,2.93" style="fill:none;stroke:#263238;stroke-linecap:round;stroke-linejoin:round"></path><path d="M177.82,231.3s1.05,2.3,5,3.35" style="fill:none;stroke:#263238;stroke-linecap:round;stroke-linejoin:round"></path><path d="M186.91,215s.58-2.26-4.22-2.71-6.29,1.58-5.54,2.06,2.49-.33,5.12-.05S185.41,216,186.91,215Z" style="fill:none;stroke:#263238;stroke-linecap:round;stroke-linejoin:round"></path><path d="M198.74,217.81a11.84,11.84,0,0,0-2.21-1.29c-4.38-2-5,.23-5,.23.81,1.59,1.95.65,4.36,1.72a11.73,11.73,0,0,1,2.16,1.27l0,0C198.29,219.08,198.52,218.45,198.74,217.81Z" style="fill:none;stroke:#263238;stroke-linecap:round;stroke-linejoin:round"></path><path d="M170.69,196.33c-.35.29-.69.6-1,.91-4.84,4.63-6.34,10.7-6.74,17.35,0,.56-.5,2.86-.17,3.27,0,0,2.52,3.21,2.94,1.75s2.09-2.3,5-5.43,5.43-5.85,5.22-10.65-4.17-4.39-4.17-6.89v-1.15Q171.22,195.9,170.69,196.33Z" style="fill:none;stroke:#263238;stroke-linecap:round;stroke-linejoin:round"></path><path d="M218.76,271.05s-4.88,8.5-3.21,11.7,6,5.29,9.33,3.76,4.46-7.8,3.76-9.89S222.1,268,218.76,271.05Z" style="fill:#fff;stroke:#263238;stroke-linecap:round;stroke-linejoin:round"></path><path d="M185.85,240.62s-9-.62-9.92,6.66,4.8,8.53,4.8,8.53-2.63,5.11-.46,8.52,7.9,4.65,10.85,1.24l19.52,3.1A13.2,13.2,0,0,0,221,267.12c5.42-3.26,5.11-9.76,3.25-13.48a6.5,6.5,0,0,0-6-3.41s2.94-11-4.49-16.74-14.41.31-14.41.31S189.88,227.76,185.85,240.62Z" style="fill:#fff;stroke:#263238;stroke-linecap:round;stroke-linejoin:round"></path><path d="M185.85,240.62s-9-.62-9.92,6.66,4.8,8.53,4.8,8.53-2.63,5.11-.46,8.52,7.9,4.65,10.85,1.24l19.52,3.1A13.2,13.2,0,0,0,221,267.12c5.42-3.26,5.11-9.76,3.25-13.48a6.5,6.5,0,0,0-6-3.41s2.94-11-4.49-16.74-14.41.31-14.41.31S189.88,227.76,185.85,240.62Z" style="fill:#fff"></path><g style="clip-path:url(#freepik--clip-path-6--inject-181)"><path d="M215.31,257.15S218.12,247,211,241.69s-13.76.28-13.76.28-9-5.58-12.87,6.3c0,0-5.59-.37-8.21,3a6.6,6.6,0,0,0,4.55,4.51s-2.63,5.11-.46,8.52,7.9,4.65,10.85,1.24l19.52,3.1A13.2,13.2,0,0,0,221,267.12a11.44,11.44,0,0,0,1.16-.83,10.86,10.86,0,0,0-1.1-6C219.31,256.86,215.31,257.15,215.31,257.15Z" style="fill:#7E57C2"></path><path d="M215.31,257.15S218.12,247,211,241.69s-13.76.28-13.76.28-9-5.58-12.87,6.3c0,0-5.59-.37-8.21,3a6.6,6.6,0,0,0,4.55,4.51s-2.63,5.11-.46,8.52,7.9,4.65,10.85,1.24l19.52,3.1A13.2,13.2,0,0,0,221,267.12a11.44,11.44,0,0,0,1.16-.83,10.86,10.86,0,0,0-1.1-6C219.31,256.86,215.31,257.15,215.31,257.15Z" style="fill:#fff;opacity:0.5"></path></g><path d="M185.85,240.62s-9-.62-9.92,6.66,4.8,8.53,4.8,8.53-2.63,5.11-.46,8.52,7.9,4.65,10.85,1.24l19.52,3.1A13.2,13.2,0,0,0,221,267.12c5.42-3.26,5.11-9.76,3.25-13.48a6.5,6.5,0,0,0-6-3.41s2.94-11-4.49-16.74-14.41.31-14.41.31S189.88,227.76,185.85,240.62Z" style="fill:none;stroke:#263238;stroke-linecap:round;stroke-linejoin:round"></path><path d="M204,408.53s7.88,35.91,8.33,37.73-6.82,4.54-8.94,7.12.61,2.73,4.85,2.73,9.24-4.55,10.76-5.31,2.27-.75,2.27-4.24-.91-33.64-.91-33.64S209,410.8,204,408.53Z" style="fill:#fff"></path><g style="clip-path:url(#freepik--clip-path-7--inject-181)"><path d="M220.62,420.41c-.12-4.36-.22-7.49-.22-7.49S209,410.8,204,408.53c0,0,7.88,35.91,8.33,37.73.18.73-.89,1.61-2.37,2.56,3,0,5.13-1,5.34-2.89.24-2.15-3.12-26-3.12-26C214.77,421.36,218.28,421,220.62,420.41Z" style="fill:#7E57C2"></path><path d="M220.62,420.41c-.12-4.36-.22-7.49-.22-7.49S209,410.8,204,408.53c0,0,7.88,35.91,8.33,37.73.18.73-.89,1.61-2.37,2.56,3,0,5.13-1,5.34-2.89.24-2.15-3.12-26-3.12-26C214.77,421.36,218.28,421,220.62,420.41Z" style="fill:#fff;opacity:0.5"></path></g><path d="M204,408.53s7.88,35.91,8.33,37.73-6.82,4.54-8.94,7.12.61,2.73,4.85,2.73,9.24-4.55,10.76-5.31,2.27-.75,2.27-4.24-.91-33.64-.91-33.64S209,410.8,204,408.53Z" style="fill:none;stroke:#263238;stroke-linecap:round;stroke-linejoin:round"></path><path d="M209.15,431.8c1.62,7.32,3,13.72,3.22,14.46.46,1.82-6.82,4.54-8.94,7.12s.61,2.73,4.85,2.73,9.24-4.55,10.76-5.31,2.27-.75,2.27-4.24c0-1.42-.15-7.24-.33-13.66A11.73,11.73,0,0,1,209.15,431.8Z" style="fill:none;stroke:#263238;stroke-linecap:round;stroke-linejoin:round"></path><path d="M219,450.8c1.49-.74,2.25-.76,2.27-4.1a11,11,0,0,1-5.61,3.35,4.4,4.4,0,0,0-.6-2c-.61-1.06-2.88-.91-2.88-.91h-.17c-1.38,1.75-6.83,4-8.62,6.21-2.12,2.58.61,2.73,4.85,2.73S217.52,451.56,219,450.8Z" style="fill:#7E57C2;stroke:#263238;stroke-linecap:round;stroke-linejoin:round"></path><path d="M228.89,414.13l3.33,35.92s-6.36,3.63-7,5.91,2.58,1.81,7.12.45a19,19,0,0,0,9.25-5.91c1.36-1.82,1.06-5.61,1.06-8.49s.6-31.51.6-31.51S235.1,414.89,228.89,414.13Z" style="fill:#fff"></path><g style="clip-path:url(#freepik--clip-path-8--inject-181)"><path d="M228.89,414.13l3.33,35.92s-.52.3-1.27.77c2.52-.19,4.52-.88,5.19-1.77.78-1,.78-28.34.78-28.34a22.16,22.16,0,0,0,6.19-1.7c.1-4.84.17-8.51.17-8.51S235.1,414.89,228.89,414.13Z" style="fill:#7E57C2"></path><path d="M228.89,414.13l3.33,35.92s-.52.3-1.27.77c2.52-.19,4.52-.88,5.19-1.77.78-1,.78-28.34.78-28.34a22.16,22.16,0,0,0,6.19-1.7c.1-4.84.17-8.51.17-8.51S235.1,414.89,228.89,414.13Z" style="fill:#fff;opacity:0.5"></path></g><path d="M228.89,414.13l3.33,35.92s-6.36,3.63-7,5.91,2.58,1.81,7.12.45a19,19,0,0,0,9.25-5.91c1.36-1.82,1.06-5.61,1.06-8.49s.6-31.51.6-31.51S235.1,414.89,228.89,414.13Z" style="fill:none;stroke:#263238;stroke-linecap:round;stroke-linejoin:round"></path><path d="M241.62,450.5c1.36-1.82,1.06-5.61,1.06-8.49,0-.79,0-3.54.11-7.09a21.11,21.11,0,0,1-12.06-.95l1.49,16.08s-6.36,3.63-7,5.91,2.58,1.81,7.12.45A19,19,0,0,0,241.62,450.5Z" style="fill:none;stroke:#263238;stroke-linecap:round;stroke-linejoin:round"></path><path d="M241.62,450.5a6,6,0,0,0,.94-2.8,32.51,32.51,0,0,1-7.31,3.41s0-.76-1.21-1.22a1.71,1.71,0,0,0-1.82.16s-6.36,3.63-7,5.91,2.58,1.81,7.12.45A19,19,0,0,0,241.62,450.5Z" style="fill:#7E57C2;stroke:#263238;stroke-linecap:round;stroke-linejoin:round"></path><path d="M210.64,271.92s-8.52.93-10.69,6-1.24,11.47-1.4,13.64-4,7.43-3.25,14.41,5.11,12.86,5,14.25-5.89,22.16-7.13,34.55,2.32,50.67,2.32,50.67,12.55,9.91,28.67,10.38,27-4.8,27-4.8,4-40,2.79-55.78S243.49,315,242.71,310s-5-22.46-13.48-30.52S212.5,271.3,210.64,271.92Z" style="fill:#7E57C2"></path><g style="clip-path:url(#freepik--clip-path-9--inject-181)"><path d="M234.63,400.27c.59-13.71.66-29.75.64-39,1.29-8.06-1.12-18.33-1.52-27.52-.6-13.61-2.07-26.92-2.07-26.92L221,328.69s4.14-24.84,3.84-35.79-10.05-15.08-10.05-15.08l-9.9-4.31a9.2,9.2,0,0,0-5,4.45c-2.17,5.12-1.24,11.47-1.4,13.64s-4,7.43-3.25,14.41,5.11,12.86,5,14.25-5.89,22.16-7.13,34.55,2.32,50.67,2.32,50.67,12.55,9.91,28.67,10.38a72.58,72.58,0,0,0,8.37-.26A73.26,73.26,0,0,0,234.63,400.27Z" style="opacity:0.30000000000000004"></path></g><path d="M210.64,271.92s-8.52.93-10.69,6-1.24,11.47-1.4,13.64-4,7.43-3.25,14.41,5.11,12.86,5,14.25-5.89,22.16-7.13,34.55,2.32,50.67,2.32,50.67,12.55,9.91,28.67,10.38,27-4.8,27-4.8,4-40,2.79-55.78S243.49,315,242.71,310s-5-22.46-13.48-30.52S212.5,271.3,210.64,271.92Z" style="fill:none;stroke:#263238;stroke-linecap:round;stroke-linejoin:round"></path><path d="M205.37,276.41s2.17,6,2,8.83-.77,7.91,2,4.65,6.82-10.84,6.82-14.25-3.57-11.93-3.57-11.93-2,5.58-3.87,8.21S205.37,276.41,205.37,276.41Z" style="fill:#fff"></path><g style="clip-path:url(#freepik--clip-path-10--inject-181)"><path d="M211.86,280.78a131.49,131.49,0,0,0,1.33-15.72c-.32-.83-.54-1.35-.54-1.35s-2,5.58-3.87,8.21-3.41,4.49-3.41,4.49,2.17,6,2,8.83-.77,7.91,2,4.65a24.8,24.8,0,0,0,2-2.72A39.7,39.7,0,0,1,211.86,280.78Z" style="fill:#7E57C2"></path><path d="M211.86,280.78a131.49,131.49,0,0,0,1.33-15.72c-.32-.83-.54-1.35-.54-1.35s-2,5.58-3.87,8.21-3.41,4.49-3.41,4.49,2.17,6,2,8.83-.77,7.91,2,4.65a24.8,24.8,0,0,0,2-2.72A39.7,39.7,0,0,1,211.86,280.78Z" style="fill:#fff;opacity:0.5"></path></g><path d="M205.37,276.41s2.17,6,2,8.83-.77,7.91,2,4.65,6.82-10.84,6.82-14.25-3.57-11.93-3.57-11.93-2,5.58-3.87,8.21S205.37,276.41,205.37,276.41Z" style="fill:none;stroke:#263238;stroke-linecap:round;stroke-linejoin:round"></path><path d="M213.12,318.18s-10.44-7.31-15.67-13.36-5.84-6.89-5.84-6.89.41-6.48.21-8.78.2-6.26.2-8.35-1.25-1.46-2.08-.21a9.37,9.37,0,0,0-1.05,3.55s-4.06-5.81-5.16-7-1.87-.33-1.87.33a4.35,4.35,0,0,0,.33,1.43s-1.32-2-2.42-1.65-1,2.09-.77,2.53.55,1,.55,1-1.65-1.32-2.09-.11a3.38,3.38,0,0,0,.55,3.08,4.52,4.52,0,0,1,.77,1.32,2,2,0,0,0-1,1.65c0,1.1,1.43,4.18,3.3,7.7a17.43,17.43,0,0,0,5.28,5.72s8.47,18.16,15.41,26.19,12.76,10.67,17.82,8.58,5.94-9.13,5.94-9.13Z" style="fill:#fff"></path><g style="clip-path:url(#freepik--clip-path-11--inject-181)"><path d="M213.12,318.18s-10.44-7.31-15.67-13.36-5.84-6.89-5.84-6.89.41-6.48.21-8.78.2-6.26.2-8.35-1.25-1.46-2.08-.21a9.37,9.37,0,0,0-1.05,3.55s-4.06-5.81-5.16-7-1.87-.33-1.87.33a4.35,4.35,0,0,0,.33,1.43s-1.32-2-2.42-1.65-1,2.09-.77,2.53.55,1,.55,1-1.65-1.32-2.09-.11a3.38,3.38,0,0,0,.55,3.08,4.52,4.52,0,0,1,.77,1.32,2,2,0,0,0-1,1.65c0,1.1,1.43,4.18,3.3,7.7a17.43,17.43,0,0,0,5.28,5.72s8.47,18.16,15.41,26.19,12.76,10.67,17.82,8.58,5.94-9.13,5.94-9.13Z" style="fill:#7E57C2"></path><path d="M213.12,318.18s-10.44-7.31-15.67-13.36-5.84-6.89-5.84-6.89.41-6.48.21-8.78.2-6.26.2-8.35-1.25-1.46-2.08-.21a9.37,9.37,0,0,0-1.05,3.55s-4.06-5.81-5.16-7-1.87-.33-1.87.33a4.35,4.35,0,0,0,.33,1.43s-1.32-2-2.42-1.65-1,2.09-.77,2.53.55,1,.55,1-1.65-1.32-2.09-.11a3.38,3.38,0,0,0,.55,3.08,4.52,4.52,0,0,1,.77,1.32,2,2,0,0,0-1,1.65c0,1.1,1.43,4.18,3.3,7.7a17.43,17.43,0,0,0,5.28,5.72s8.47,18.16,15.41,26.19,12.76,10.67,17.82,8.58,5.94-9.13,5.94-9.13Z" style="fill:#fff;opacity:0.5"></path><ellipse cx="211.49" cy="323.17" rx="5.57" ry="10.41" transform="translate(-168.51 392.23) rotate(-67.1)" style="fill:#fff"></ellipse></g><path d="M213.12,318.18s-10.44-7.31-15.67-13.36-5.84-6.89-5.84-6.89.41-6.48.21-8.78.2-6.26.2-8.35-1.25-1.46-2.08-.21a9.37,9.37,0,0,0-1.05,3.55s-4.06-5.81-5.16-7-1.87-.33-1.87.33a4.35,4.35,0,0,0,.33,1.43s-1.32-2-2.42-1.65-1,2.09-.77,2.53.55,1,.55,1-1.65-1.32-2.09-.11a3.38,3.38,0,0,0,.55,3.08,4.52,4.52,0,0,1,.77,1.32,2,2,0,0,0-1,1.65c0,1.1,1.43,4.18,3.3,7.7a17.43,17.43,0,0,0,5.28,5.72s8.47,18.16,15.41,26.19,12.76,10.67,17.82,8.58,5.94-9.13,5.94-9.13Z" style="fill:none;stroke:#263238;stroke-linecap:round;stroke-linejoin:round"></path><line x1="182.19" y1="278.88" x2="186.04" y2="285.48" style="fill:none;stroke:#263238;stroke-linecap:round;stroke-linejoin:round"></line><line x1="179.55" y1="280.75" x2="183.4" y2="287.24" style="fill:none;stroke:#263238;stroke-linecap:round;stroke-linejoin:round"></line><line x1="178.78" y1="285.04" x2="181.64" y2="289.99" style="fill:none;stroke:#263238;stroke-linecap:round;stroke-linejoin:round"></line><path d="M188.89,284.14a4.32,4.32,0,0,1,1.44,2.33" style="fill:none;stroke:#263238;stroke-linecap:round;stroke-linejoin:round"></path><path d="M232.54,292.08c2.51,17.75-3.55,35.71-3.55,35.71-14.41-2.09-17.33-10.86-17.33-10.86,1.25-4,4.8-25.48,4.8-25.48a9.08,9.08,0,0,1,9.21-3.78" style="fill:#7E57C2"></path><g style="clip-path:url(#freepik--clip-path-12--inject-181)"><g style="opacity:0.30000000000000004"><path d="M211.66,316.93s1.85,5.53,9.83,8.86c1.07-6.87,3.62-24.23,3.38-32.89,0-.38-.73-5-.77-5.34h-2l-2,.89-2,1.15-1.52,1.85S212.91,313,211.66,316.93Z"></path></g></g><path d="M232.54,292.08c2.51,17.75-3.55,35.71-3.55,35.71-14.41-2.09-17.33-10.86-17.33-10.86,1.25-4,4.8-25.48,4.8-25.48a9.08,9.08,0,0,1,9.21-3.78" style="fill:none;stroke:#263238;stroke-linecap:round;stroke-linejoin:round"></path><path d="M251.08,411.06s4-40,2.79-55.78c-.07-.87-.17-1.76-.28-2.68-5.84,3-15.05,5.78-29.54,6.59-17.1.95-26.13-1.65-30.9-4.55,0,.06,0,.12,0,.17-1.24,12.4,2.32,50.67,2.32,50.67s12.55,9.91,28.67,10.38S251.08,411.06,251.08,411.06Z" style="fill:#263238"></path><g style="clip-path:url(#freepik--clip-path-13--inject-181)"><path d="M200,357.88s-1.6,26.31.4,50.62" style="fill:none;stroke:#fff;stroke-linecap:round;stroke-linejoin:round"></path><path d="M207.77,358.88s-1.4,41.05,1.2,53.81" style="fill:none;stroke:#fff;stroke-linecap:round;stroke-linejoin:round"></path><path d="M216.74,359.67s.6,34.08,1.39,55.41" style="fill:none;stroke:#fff;stroke-linecap:round;stroke-linejoin:round"></path><line x1="227.1" y1="359.07" x2="227.83" y2="415.65" style="fill:none;stroke:#fff;stroke-linecap:round;stroke-linejoin:round"></line><path d="M235.08,357.88s3.58,34.08,1.59,57.2" style="fill:none;stroke:#fff;stroke-linecap:round;stroke-linejoin:round"></path><path d="M243.65,356.28s4.78,30.5,1.39,57" style="fill:none;stroke:#fff;stroke-linecap:round;stroke-linejoin:round"></path><path d="M250.82,353.69S253,381,252.42,393" style="fill:none;stroke:#fff;stroke-linecap:round;stroke-linejoin:round"></path></g><path d="M251.08,411.06s4-40,2.79-55.78c-.07-.87-.17-1.76-.28-2.68-5.84,3-15.05,5.78-29.54,6.59-17.1.95-26.13-1.65-30.9-4.55,0,.06,0,.12,0,.17-1.24,12.4,2.32,50.67,2.32,50.67s12.55,9.91,28.67,10.38S251.08,411.06,251.08,411.06Z" style="fill:none;stroke:#263238;stroke-linecap:round;stroke-linejoin:round"></path><path d="M185.38,256.12s3,9.91,7.29,15.18,8.67,7.75,13.48,5.42,7-8.21,7-10.07v-3.87s3.41-.47,3.41-4.65-2.64-5.42-3.72-4.49a10.53,10.53,0,0,0-2,2.94,42.4,42.4,0,0,1-3.25-3.56,5.46,5.46,0,0,1-.62-1.71s-6.82-.15-9.3-1.24a23.93,23.93,0,0,1-5.57-4.18S192.05,254.57,185.38,256.12Z" style="fill:#fff"></path><g style="clip-path:url(#freepik--clip-path-14--inject-181)"><path d="M185.38,256.12s3,9.91,7.29,15.18,8.67,7.75,13.48,5.42,7-8.21,7-10.07V264.8l-.47-1.09s-2.27,12.92-10.85,9.37-9.75-27.19-9.75-27.19S192.05,254.57,185.38,256.12Z" style="fill:#7E57C2"></path><path d="M185.38,256.12s3,9.91,7.29,15.18,8.67,7.75,13.48,5.42,7-8.21,7-10.07V264.8l-.47-1.09s-2.27,12.92-10.85,9.37-9.75-27.19-9.75-27.19S192.05,254.57,185.38,256.12Z" style="fill:#fff;opacity:0.5"></path></g><path d="M185.38,256.12s3,9.91,7.29,15.18,8.67,7.75,13.48,5.42,7-8.21,7-10.07v-3.87s3.41-.47,3.41-4.65-2.64-5.42-3.72-4.49a10.53,10.53,0,0,0-2,2.94,42.4,42.4,0,0,1-3.25-3.56,5.46,5.46,0,0,1-.62-1.71s-6.82-.15-9.3-1.24a23.93,23.93,0,0,1-5.57-4.18S192.05,254.57,185.38,256.12Z" style="fill:none;stroke:#263238;stroke-linecap:round;stroke-linejoin:round"></path><path d="M196.54,259.52s1.08,5.27,1.86,5.89,2.32.47,1.86-2.17" style="fill:none;stroke:#263238;stroke-linecap:round;stroke-linejoin:round"></path><path d="M198.86,268.36s3.41-.16,4.5-2.64" style="fill:none;stroke:#263238;stroke-linecap:round;stroke-linejoin:round"></path><path d="M200,257.2l.62,2s3.56.62,4.49-2.63" style="fill:none;stroke:#263238;stroke-linecap:round;stroke-linejoin:round"></path><path d="M191.12,261.07l.77,2s2.48.15,3.56-1.71" style="fill:none;stroke:#263238;stroke-linecap:round;stroke-linejoin:round"></path><path d="M189.52,259.29a5.67,5.67,0,0,1,4.38-3" style="fill:none;stroke:#263238;stroke-linecap:round;stroke-linejoin:round"></path><path d="M202.88,253.23c-3.86-1-4.69.84-4.69.84" style="fill:none;stroke:#263238;stroke-linecap:round;stroke-linejoin:round"></path><path d="M201.32,260.44s1.56,1.56,4.7.63" style="fill:none;stroke:#263238;stroke-linecap:round;stroke-linejoin:round"></path><path d="M196.31,262.42s0,2.4-1.68,3.34" style="fill:none;stroke:#263238;stroke-linecap:round;stroke-linejoin:round"></path><path d="M226.65,276.73s-1.26,6.27.42,7.1,2.54-1.77,3.34-6.05C231.17,273.69,227.69,271.93,226.65,276.73Z" style="fill:#fff;stroke:#263238;stroke-linecap:round;stroke-linejoin:round"></path><path d="M224.62,274.38s-1.25,6.27.42,7.1,2.54-1.77,3.34-6.06C229.14,271.33,225.66,269.58,224.62,274.38Z" style="fill:#fff;stroke:#263238;stroke-linecap:round;stroke-linejoin:round"></path><path d="M221.7,271.87s-1.25,6.26.42,7.1,2.54-1.77,3.34-6.06C226.23,268.82,222.75,267.06,221.7,271.87Z" style="fill:#fff;stroke:#263238;stroke-linecap:round;stroke-linejoin:round"></path><path d="M218.3,270.89s-1.26,6.27.41,7.1,2.54-1.77,3.35-6.05C222.82,267.85,219.34,266.09,218.3,270.89Z" style="fill:#fff;stroke:#263238;stroke-linecap:round;stroke-linejoin:round"></path></g></svg>