<svg xmlns="http://www.w3.org/2000/svg" viewBox="0 0 500 500"><g id="freepik--background-simple--inject-2"><path d="M321.28,42.2S246.77,15.71,173.64,57.89s-110,125.9-141.73,193S18.47,386.15,74.29,417.26s93.79-14.75,172.11-17,99.38,9,164.37-35.27,76.74-148.74,25.47-226S321.28,42.2,321.28,42.2Z" style="fill:#7E57C2"></path><path d="M321.28,42.2S246.77,15.71,173.64,57.89s-110,125.9-141.73,193S18.47,386.15,74.29,417.26s93.79-14.75,172.11-17,99.38,9,164.37-35.27,76.74-148.74,25.47-226S321.28,42.2,321.28,42.2Z" style="fill:#fff;opacity:0.7000000000000001"></path></g><g id="freepik--Window--inject-2"><rect x="263" y="21" width="215" height="278.27" style="fill:none;stroke:#263238;stroke-linecap:round;stroke-linejoin:round"></rect><line x1="318" y1="21" x2="318" y2="299.27" style="fill:none;stroke:#263238;stroke-linecap:round;stroke-linejoin:round"></line><line x1="373" y1="21" x2="373" y2="299.27" style="fill:none;stroke:#263238;stroke-linecap:round;stroke-linejoin:round"></line><line x1="428" y1="21" x2="428" y2="299.27" style="fill:none;stroke:#263238;stroke-linecap:round;stroke-linejoin:round"></line><line x1="263.5" y1="105.98" x2="477" y2="105.98" style="fill:none;stroke:#263238;stroke-linecap:round;stroke-linejoin:round"></line><line x1="263.02" y1="209.28" x2="477" y2="209.28" style="fill:none;stroke:#263238;stroke-linecap:round;stroke-linejoin:round"></line></g><g id="freepik--Plant--inject-2"><line x1="456.46" y1="248.3" x2="456.46" y2="183.33" style="fill:none;stroke:#7E57C2;stroke-linecap:round;stroke-linejoin:round"></line><path d="M456,242.44s-3.42-4.88-7.81-7.33-11.73-2.44-11.73-2.44S440.34,246.84,456,242.44Z" style="fill:#7E57C2"></path><path d="M456.46,242.44s3.42-4.88,7.82-7.33S476,232.67,476,232.67,472.09,246.84,456.46,242.44Z" style="fill:#7E57C2"></path><path d="M456,224.86s-3.42-4.89-7.81-7.33-11.73-2.44-11.73-2.44S440.34,229.25,456,224.86Z" style="fill:#7E57C2"></path><path d="M456.46,224.86s3.42-4.89,7.82-7.33S476,215.09,476,215.09,472.09,229.25,456.46,224.86Z" style="fill:#7E57C2"></path><path d="M456,207.27s-3.42-4.88-7.81-7.33-11.73-2.44-11.73-2.44S440.34,211.67,456,207.27Z" style="fill:#7E57C2"></path><path d="M456.46,207.27s3.42-4.88,7.82-7.33S476,197.5,476,197.5,472.09,211.67,456.46,207.27Z" style="fill:#7E57C2"></path><path d="M456,189.68s-3.42-4.88-7.81-7.32-11.73-2.45-11.73-2.45S440.34,194.08,456,189.68Z" style="fill:#7E57C2"></path><path d="M456.46,189.68s3.42-4.88,7.82-7.32S476,179.91,476,179.91,472.09,194.08,456.46,189.68Z" style="fill:#7E57C2"></path><path d="M456.46,183.33s-3.91-5.26-4.11-10.28,3.11-11.57,3.11-11.57S467.43,171.37,456.46,183.33Z" style="fill:#7E57C2"></path><polygon points="446.68 247.09 465.63 247.09 460.89 298.93 451.42 298.93 446.68 247.09" style="fill:#263238;stroke:#263238;stroke-linecap:round;stroke-linejoin:round"></polygon></g><g id="freepik--Tools--inject-2"><rect x="169.78" y="92.62" width="3.39" height="121.19" transform="translate(-0.61 0.69) rotate(-0.23)" style="fill:#a8a8a8;stroke:#263238;stroke-linecap:round;stroke-linejoin:round"></rect><path d="M174.24,215.23a.65.65,0,0,1,0,.13,2.35,2.35,0,0,1-3,1.52l-19.82-6.43a21,21,0,0,1-8.67-5.49,12,12,0,0,1-3.31-8.32l.13-97a12.07,12.07,0,0,1,10.83-12l22-2.29a2.37,2.37,0,1,1,.49,4.72l-22,2.29a7.33,7.33,0,0,0-6.58,7.29l-.13,97a7.32,7.32,0,0,0,2,5.06,16.22,16.22,0,0,0,6.7,4.24l19.81,6.43A2.37,2.37,0,0,1,174.24,215.23Z" style="fill:#787878;stroke:#263238;stroke-linecap:round;stroke-linejoin:round"></path><path d="M173.54,97.62A2.38,2.38,0,0,1,168.9,97l-.29-8.33a2.37,2.37,0,1,1,4.74-.16l.29,8.33A2.6,2.6,0,0,1,173.54,97.62Z" style="fill:#a8a8a8;stroke:#263238;stroke-linecap:round;stroke-linejoin:round"></path><path d="M162.58,55.11c-.68.88-.91,2.32-3,3.57s-6.67,1.86-9,4-5.44,2.33-6.39,1.93-2-1.58-2.25-.59a6.74,6.74,0,0,0,.47,4.49c.86,1.88,3.1,3.68,3.9,5.24a4.12,4.12,0,0,1,.34,3.85,2.91,2.91,0,0,0,.14,2.9c.45.57.81.37.58,1.21s-.83,1.44-.95,2.46.62,7.39.62,7.39h0a.53.53,0,0,0,.59.53l16.48-1.88a.53.53,0,0,0,.47-.52l.11-11.4a22.61,22.61,0,0,1,2.19-3.19,8.57,8.57,0,0,0,2.26-5.73,11.46,11.46,0,0,0-2-6.56c-1-1.32-2.19-2.53-2.07-3.56s1.16-2.7.15-3.42S163.26,54.24,162.58,55.11Zm3.77,12c1.31,3.05-1,5.46-4.53,6.93s-6.44,3.88-9.9,3.27-3.87-3.58-2.16-4.93c0,0,5.71-1.66,9-4.55S165.05,64,166.35,67.1Z" style="fill:#7E57C2;stroke:#263238;stroke-miterlimit:10"></path><path d="M148.85,89.29a.8.8,0,0,1,.56,1,.79.79,0,0,1-1.53-.4A.79.79,0,0,1,148.85,89.29Z" style="fill:#fff;stroke:#263238;stroke-linecap:round;stroke-linejoin:round"></path><path d="M163.08,88a.79.79,0,0,1-.4,1.53.79.79,0,1,1,.4-1.53Z" style="fill:#fff;stroke:#263238;stroke-linecap:round;stroke-linejoin:round"></path><polygon points="220.45 180.31 217.06 180.32 216.58 92.63 219.97 92.62 220.45 180.31" style="fill:#a8a8a8;stroke:#263238;stroke-linecap:round;stroke-linejoin:round"></polygon><path d="M221.28,181.73l0,.13a2.38,2.38,0,0,1-3,1.53L198.44,177a20.93,20.93,0,0,1-8.67-5.49,12,12,0,0,1-3.31-8.32l.13-63.48a12.07,12.07,0,0,1,10.83-12l22.05-2.29a2.37,2.37,0,0,1,.49,4.72l-22.05,2.29a7.33,7.33,0,0,0-6.58,7.29l-.13,63.48a7.31,7.31,0,0,0,2,5,16.22,16.22,0,0,0,6.7,4.24l19.81,6.44A2.37,2.37,0,0,1,221.28,181.73Z" style="fill:#787878;stroke:#263238;stroke-linecap:round;stroke-linejoin:round"></path><path d="M220.58,97.62a2.38,2.38,0,0,1-4.64-.63l-.29-8.33a2.37,2.37,0,1,1,4.74-.16l.29,8.33A2.32,2.32,0,0,1,220.58,97.62Z" style="fill:#a8a8a8;stroke:#263238;stroke-linecap:round;stroke-linejoin:round"></path><path d="M209.62,55.11c-.68.88-.91,2.32-3,3.57s-6.67,1.86-9,4-5.44,2.33-6.38,1.93-2-1.58-2.26-.59a6.69,6.69,0,0,0,.48,4.49c.86,1.88,3.09,3.68,3.89,5.24a4.12,4.12,0,0,1,.34,3.85,2.91,2.91,0,0,0,.14,2.9c.45.57.81.37.59,1.21s-.84,1.44-1,2.46.61,7.39.61,7.39h0a.53.53,0,0,0,.59.53l16.48-1.88a.53.53,0,0,0,.47-.52l.11-11.4a23.68,23.68,0,0,1,2.19-3.19,8.57,8.57,0,0,0,2.26-5.73,11.53,11.53,0,0,0-2-6.56c-1-1.32-2.2-2.53-2.08-3.56s1.16-2.7.15-3.42S210.31,54.24,209.62,55.11Zm3.78,12c1.3,3.05-1,5.46-4.54,6.93s-6.44,3.88-9.89,3.27-3.88-3.58-2.17-4.93c0,0,5.71-1.66,9-4.55S212.09,64,213.4,67.1Z" style="fill:#7E57C2;stroke:#263238;stroke-miterlimit:10"></path><path d="M195.89,89.29a.79.79,0,0,1-.4,1.53.79.79,0,0,1,.4-1.53Z" style="fill:#fff;stroke:#263238;stroke-linecap:round;stroke-linejoin:round"></path><path d="M210.12,88a.79.79,0,1,1-1,.56A.79.79,0,0,1,210.12,88Z" style="fill:#fff;stroke:#263238;stroke-linecap:round;stroke-linejoin:round"></path><path d="M77.5,143.57H67.9v-62h0a9.6,9.6,0,0,1,9.6,9.6Z" style="fill:#fff;stroke:#263238;stroke-miterlimit:10"></path><path d="M74.86,143.57h-9.6v-62h0a9.6,9.6,0,0,1,9.6,9.6Z" style="fill:#a8a8a8;stroke:#263238;stroke-linecap:round;stroke-linejoin:round"></path><rect x="37.55" y="88.89" width="2.12" height="18.51" style="fill:#fff;stroke:#263238;stroke-miterlimit:10"></rect><path d="M42.05,91.8H35.44V76.06a3.31,3.31,0,0,1,3.3-3.31h0a3.31,3.31,0,0,1,3.31,3.31Z" style="fill:#7E57C2;stroke:#263238;stroke-miterlimit:10"></path><rect x="34.64" y="91" width="8.3" height="2.33" style="fill:#fff;stroke:#263238;stroke-miterlimit:10"></rect><rect x="50.02" y="90.59" width="2.12" height="18.51" style="fill:#fff;stroke:#263238;stroke-miterlimit:10"></rect><path d="M54.51,93.5H47.9V77.76a3.31,3.31,0,0,1,3.31-3.3h0a3.3,3.3,0,0,1,3.3,3.3Z" style="fill:#7E57C2;stroke:#263238;stroke-miterlimit:10"></path><rect x="47.11" y="92.71" width="8.3" height="2.33" style="fill:#fff;stroke:#263238;stroke-miterlimit:10"></rect><rect x="61.81" y="92.08" width="2.12" height="18.51" style="fill:#fff;stroke:#263238;stroke-miterlimit:10"></rect><path d="M66.31,95H59.7V79.25A3.3,3.3,0,0,1,63,76h0a3.31,3.31,0,0,1,3.31,3.3Z" style="fill:#7E57C2;stroke:#263238;stroke-miterlimit:10"></path><rect x="58.9" y="94.2" width="8.3" height="2.33" style="fill:#fff;stroke:#263238;stroke-miterlimit:10"></rect><rect x="22.6" y="98.19" width="54.54" height="45.38" style="fill:#fff;stroke:#263238;stroke-miterlimit:10"></rect><path d="M31.33,143.57h-9.6v-62h0a9.6,9.6,0,0,1,9.6,9.6Z" style="fill:#fff;stroke:#263238;stroke-miterlimit:10"></path><path d="M29.48,143.57h-9.6v-62h0a9.6,9.6,0,0,1,9.6,9.6Z" style="fill:#a8a8a8;stroke:#263238;stroke-linecap:round;stroke-linejoin:round"></path><polygon points="100.77 180.85 124.98 104.06 101.58 75.94 96.82 76.81 93.02 79.89 93.02 79.96 92.43 79.95 92.88 80.58 92 81.73 92.86 82.9 91.98 84.06 92.83 85.23 91.96 86.38 92.81 87.56 91.94 88.71 92.79 89.88 91.91 91.03 92.76 92.2 91.89 93.36 92.74 94.53 91.87 95.68 92.72 96.85 91.84 98.01 92.69 99.18 91.82 100.33 92.67 101.5 91.8 102.66 92.65 103.83 91.78 104.98 92.63 106.16 91.75 107.31 92.6 108.48 91.73 109.63 92.58 110.81 91.71 111.96 92.56 113.13 91.69 114.28 92.53 115.45 91.66 116.61 92.51 117.78 91.64 118.93 92.49 120.1 91.62 121.25 92.47 122.42 91.59 123.58 92.44 124.75 91.57 125.9 92.42 127.07 91.55 128.22 92.4 129.39 91.53 130.54 92.38 131.71 91.5 132.87 92.35 134.03 91.48 135.19 92.33 136.36 91.46 137.51 92.31 138.68 91.44 139.83 92.28 141 91.41 142.15 92.26 143.32 91.39 144.47 92.24 145.64 91.37 146.79 92.22 147.96 91.34 149.11 92 150.02 92.08 150.02 92.26 150.27 91.39 151.43 92.24 152.6 91.37 153.75 92.22 154.93 91.34 156.08 92.19 157.25 91.32 158.4 92.17 159.57 91.3 160.73 92.15 161.9 91.28 163.05 92.13 164.22 91.25 165.38 92.1 166.55 91.23 167.71 92.08 168.88 91.21 170.03 92.06 171.2 91.19 172.36 92.03 173.53 91.16 174.68 91.58 175.25 93.2 176.56 93.2 176.49 98.67 181 100.77 180.85" style="fill:#a8a8a8;stroke:#263238;stroke-linecap:round;stroke-linejoin:round"></polygon><path d="M138.08,70.49c.11-.82-3-.32-3-.32s-4.51,2.74-7.32,1.37-7.18-6.66-11.4-8.71-7.53-6.54-7.33-8.76-.5-3.13-1.89-2.65c0,0-8.24,30.72-7.63,33s16.76,18.55,19.23,20.61,5.4,3.78,5.85,2.84S138,71.3,138.08,70.49Zm-14,19L106.84,78.61a4.45,4.45,0,0,1-1.9-5L106,69.77a3.07,3.07,0,0,1,4.4-1.87c2.77,1.46,5.68,4.26,9.77,6.65,2.72,1.59,5.22,3.13,7.11,4.33a5.58,5.58,0,0,1,2.38,6.31l-.74,2.5A3.24,3.24,0,0,1,124.12,89.52Z" style="fill:#7E57C2;stroke:#263238;stroke-miterlimit:10"></path></g><g id="freepik--Wood--inject-2"><rect x="117" y="461.95" width="344" height="8" style="fill:none;stroke:#263238;stroke-linecap:round;stroke-linejoin:round"></rect><rect x="121.77" y="454.09" width="344" height="8" style="fill:none;stroke:#263238;stroke-linecap:round;stroke-linejoin:round"></rect><rect x="113.19" y="445.99" width="344" height="8" style="fill:none;stroke:#263238;stroke-linecap:round;stroke-linejoin:round"></rect></g><g id="freepik--Table--inject-2"><rect x="229.53" y="302.17" width="35.79" height="167.76" style="fill:#696969;stroke:#263238;stroke-linecap:round;stroke-linejoin:round"></rect><rect x="251.9" y="302.17" width="35.79" height="167.76" style="fill:#9c9c9c;stroke:#263238;stroke-linecap:round;stroke-linejoin:round"></rect><rect x="260.84" y="365.29" width="60.4" height="29.08" style="fill:#696969;stroke:#263238;stroke-linecap:round;stroke-linejoin:round"></rect><rect x="312.29" y="302.17" width="35.79" height="167.76" style="fill:#696969;stroke:#263238;stroke-linecap:round;stroke-linejoin:round"></rect><rect x="334.66" y="302.17" width="35.79" height="167.76" style="fill:#9c9c9c;stroke:#263238;stroke-linecap:round;stroke-linejoin:round"></rect><rect x="161.49" y="368.84" width="129.74" height="19.57" style="fill:#9c9c9c;stroke:#263238;stroke-linecap:round;stroke-linejoin:round"></rect><rect x="43.31" y="302.17" width="35.79" height="167.76" style="fill:#696969;stroke:#263238;stroke-linecap:round;stroke-linejoin:round"></rect><rect x="65.68" y="302.17" width="35.79" height="167.76" style="fill:#9c9c9c;stroke:#263238;stroke-linecap:round;stroke-linejoin:round"></rect><rect x="43.31" y="302.17" width="60.4" height="16.5" style="fill:#263238;stroke:#263238;stroke-miterlimit:10"></rect><rect x="74.63" y="365.29" width="60.4" height="29.08" style="fill:#696969;stroke:#263238;stroke-linecap:round;stroke-linejoin:round"></rect><rect x="126.07" y="302.17" width="35.79" height="167.76" style="fill:#696969;stroke:#263238;stroke-linecap:round;stroke-linejoin:round"></rect><rect x="148.44" y="302.17" width="35.79" height="167.76" style="fill:#9c9c9c;stroke:#263238;stroke-linecap:round;stroke-linejoin:round"></rect><rect x="125.98" y="302.17" width="58.02" height="16.5" style="fill:#263238;stroke:#263238;stroke-miterlimit:10"></rect><rect x="229.31" y="302.17" width="58.02" height="16.5" style="fill:#263238;stroke:#263238;stroke-miterlimit:10"></rect><rect x="311.98" y="302.17" width="58.02" height="16.5" style="fill:#263238;stroke:#263238;stroke-miterlimit:10"></rect><rect x="102.19" y="239.91" width="140.88" height="38.34" style="fill:#4f4f4f;stroke:#263238;stroke-linecap:round;stroke-linejoin:round"></rect><rect x="114.37" y="239.91" width="128.71" height="38.34" style="fill:#707070;stroke:#263238;stroke-linecap:round;stroke-linejoin:round"></rect><path d="M195.3,271.55c0-.05,0-.1,0-.15a19.33,19.33,0,0,0-38.65,0c0,.05,0,.1,0,.15Z" style="fill:#263238;stroke:#263238;stroke-linecap:round;stroke-linejoin:round"></path><path d="M186.41,262.15a14,14,0,0,0-17.48-2.63" style="fill:none;stroke:#fff;stroke-linecap:round;stroke-linejoin:round;stroke-width:0.5px"></path><path d="M166.56,261.29a13.93,13.93,0,0,0-4.33,8.36H189.9a13.92,13.92,0,0,0-1.34-4.36" style="fill:none;stroke:#fff;stroke-linecap:round;stroke-linejoin:round;stroke-width:0.5px"></path><path d="M183.58,263.06a11.32,11.32,0,0,0-18.68,6.59h22.33a11.32,11.32,0,0,0-2.13-4.94" style="fill:none;stroke:#fff;stroke-linecap:round;stroke-linejoin:round;stroke-width:0.5px"></path><path d="M174.32,262.44a9.28,9.28,0,0,0-7.32,7.21h18.13a9.28,9.28,0,0,0-5.89-6.81" style="fill:none;stroke:#fff;stroke-linecap:round;stroke-linejoin:round;stroke-width:0.5px"></path><rect x="96.25" y="267.12" width="213.99" height="11.18" style="fill:#878787;stroke:#263238;stroke-linecap:round;stroke-linejoin:round"></rect><rect x="158.93" y="267.12" width="151.31" height="11.18" style="fill:#b5b5b5;stroke:#263238;stroke-linecap:round;stroke-linejoin:round"></rect><line x1="121.97" y1="277.94" x2="121.97" y2="267.29" style="fill:#fff;stroke:#263238;stroke-miterlimit:10"></line><path d="M102.19,365.29H126c-3.75-27.93-12-47.57-19.44-60.39H77C79.63,307.54,96,325.24,102.19,365.29Z" style="fill:#9c9c9c;stroke:#263238;stroke-linecap:round;stroke-linejoin:round"></path><path d="M91,365.29h23.85c-3.74-27.93-12-47.57-19.44-60.39H65.82C68.48,307.54,84.89,325.24,91,365.29Z" style="fill:#696969;stroke:#263238;stroke-linecap:round;stroke-linejoin:round"></path><rect x="31.38" y="278.06" width="304.21" height="29.08" style="fill:#696969;stroke:#263238;stroke-linecap:round;stroke-linejoin:round"></rect><rect x="137.26" y="278.06" width="236.36" height="29.08" style="fill:#9c9c9c;stroke:#263238;stroke-linecap:round;stroke-linejoin:round"></rect><rect x="132.04" y="278.06" width="67.11" height="29.08" style="fill:#696969;stroke:#263238;stroke-linecap:round;stroke-linejoin:round"></rect><rect x="142.48" y="278.06" width="67.11" height="29.08" style="fill:#9c9c9c;stroke:#263238;stroke-linecap:round;stroke-linejoin:round"></rect><path d="M170,338.69l-5.66-36.82a2.8,2.8,0,0,0-5.53.85l5.67,36.83a6.16,6.16,0,1,0,5.52-.86Z" style="fill:#b5b5b5;stroke:#263238;stroke-linecap:round;stroke-linejoin:round"></path><path d="M158.68,301.07h5.65l-1-6.57a4.22,4.22,0,0,0-4.17-3.58h-7a2.79,2.79,0,0,0-2.78,3.08,2.9,2.9,0,0,0,2.94,2.51H158Z" style="fill:#263238;stroke:#263238;stroke-miterlimit:10"></path><path d="M153.69,257a1.81,1.81,0,1,0,1.8-1.81A1.81,1.81,0,0,0,153.69,257Z" style="fill:#c9c9c9"></path><circle cx="150.08" cy="252.64" r="1.08" style="fill:#c9c9c9"></circle><path d="M142.49,260.4a.91.91,0,1,0,.91-.9A.9.9,0,0,0,142.49,260.4Z" style="fill:#c9c9c9"></path><path d="M147.37,257a.9.9,0,1,0,.9-.9A.9.9,0,0,0,147.37,257Z" style="fill:#c9c9c9"></path><path d="M125.16,251.91a.9.9,0,1,0,.9-.9A.9.9,0,0,0,125.16,251.91Z" style="fill:#c9c9c9"></path><path d="M142.85,251.91a.91.91,0,1,0,1.81,0,.91.91,0,0,0-1.81,0Z" style="fill:#c9c9c9"></path><circle cx="156.76" cy="253.18" r="0.9" style="fill:#c9c9c9"></circle><path d="M127.51,261.12a.9.9,0,1,0,.9-.9A.9.9,0,0,0,127.51,261.12Z" style="fill:#c9c9c9"></path><circle cx="155.13" cy="247.22" r="0.9" style="fill:#c9c9c9"></circle><circle cx="141.05" cy="243.25" r="0.9" style="fill:#c9c9c9"></circle><path d="M153,262.39a.9.9,0,1,0,.9-.91A.9.9,0,0,0,153,262.39Z" style="fill:#c9c9c9"></path><path d="M133.83,251.37a1.26,1.26,0,1,0,1.26-1.26A1.26,1.26,0,0,0,133.83,251.37Z" style="fill:#c9c9c9"></path><circle cx="131.12" cy="259.32" r="0.54" style="fill:#c9c9c9"></circle><path d="M146.47,264.55a1.08,1.08,0,1,0,1.08-1.08A1.08,1.08,0,0,0,146.47,264.55Z" style="fill:#c9c9c9"></path><circle cx="135.81" cy="256.79" r="0.54" style="fill:#c9c9c9"></circle></g><g id="freepik--Floor--inject-2"><line x1="479.4" y1="469.93" x2="487.71" y2="469.93" style="fill:none;stroke:#263238;stroke-linecap:round;stroke-linejoin:round"></line><line x1="8.51" y1="469.93" x2="471.5" y2="469.93" style="fill:none;stroke:#263238;stroke-linecap:round;stroke-linejoin:round"></line></g><g id="freepik--Character--inject-2"><path d="M388.31,448.68c-.58,0-11.34,5-10,7.3s8.07.58,13.83-1.54,6.92-3.07,6.92-3.07Z" style="fill:#fff;stroke:#263238;stroke-miterlimit:10"></path><path d="M387.73,447.72s-6,3.65-16.91,9.22-11.53,6.34-11.53,8.84.77,3.84,2.89,4,53.22,0,53.22,0,6.92,1,9.61-2.69-2.31-17.49-2.31-17.49Z" style="fill:#fff;stroke:#263238;stroke-miterlimit:10"></path><path d="M397.15,461.17c-1.93-2.31-20.56,1.15-26.52.38-4-.51-3.58-2.06-2.87-3-8,4.16-8.47,5-8.47,7.26,0,2.5.77,3.84,2.89,4,1.3.11,21.14.09,36.21.05,0-.57-.09-1-.09-1S399.07,463.47,397.15,461.17Z" style="fill:#fff;stroke:#263238;stroke-miterlimit:10"></path><path d="M415.4,469.82s6.92,1,9.61-2.69c2.26-3.08-.92-13.37-2-16.55-3,2-6.65,4.63-9.74,7.13-4.37,3.52-5.73,9.29-6.16,12.13Z" style="fill:#fff;stroke:#263238;stroke-miterlimit:10"></path><path d="M367,466.93c-2.5,0-2.69-1.34-4-3.26-.91-1.31-2.61,1.1-3.62,2.79.14,2.06.94,3.18,2.86,3.36,2.11.19,53.22,0,53.22,0s6.92,1,9.61-2.69a7.07,7.07,0,0,0,.77-4.3,74.33,74.33,0,0,1-11,2.76C409.25,466.36,369.48,466.93,367,466.93Z" style="fill:#fff;stroke:#263238;stroke-miterlimit:10"></path><path d="M367.18,447.72s-6,3.65-16.91,9.22-11.53,6.34-11.53,8.84.77,3.84,2.88,4,53.22,0,53.22,0,6.92,1,9.61-2.69-2.3-17.49-2.3-17.49Z" style="fill:#fff;stroke:#263238;stroke-miterlimit:10"></path><path d="M376.59,461.17c-1.92-2.31-20.56,1.15-26.51.38-4-.51-3.58-2.06-2.88-3-8,4.16-8.46,5-8.46,7.26,0,2.5.77,3.84,2.88,4,1.3.11,21.14.09,36.22.05,0-.57-.1-1-.1-1S378.51,463.47,376.59,461.17Z" style="fill:#fff;stroke:#263238;stroke-miterlimit:10"></path><path d="M394.84,469.82s6.92,1,9.61-2.69c2.27-3.08-.92-13.37-2-16.55-3,2-6.64,4.63-9.74,7.13-4.36,3.52-5.73,9.29-6.15,12.13Z" style="fill:#fff;stroke:#263238;stroke-miterlimit:10"></path><path d="M346.42,466.93c-2.49,0-2.69-1.34-4-3.26-.91-1.31-2.62,1.1-3.62,2.79.13,2.06.94,3.18,2.85,3.36,2.11.19,53.22,0,53.22,0s6.92,1,9.61-2.69a6.93,6.93,0,0,0,.77-4.3,74.18,74.18,0,0,1-11,2.76C388.7,466.36,348.92,466.93,346.42,466.93Z" style="fill:#fff;stroke:#263238;stroke-miterlimit:10"></path><path d="M367.75,448.68c-.57,0-11.33,5-10,7.3s8.07.58,13.84-1.54,6.91-3.07,6.91-3.07Z" style="fill:#fff;stroke:#263238;stroke-miterlimit:10"></path><path d="M392.63,317.53l1.87,21.25s8.94,13.05,11.93,21.25,17.89,60.39,18.64,63.75-.75,7.83-1.12,10.07,1.12,8.94,1.12,8.94l.37,9.32s-18.27,4.1-28.71-2.61-15.28-45.11-18.26-73.07-8.21-30.19-.75-43.24S392.63,317.53,392.63,317.53Z" style="fill:#263238;stroke:#263238;stroke-miterlimit:10"></path><path d="M327.76,246s6,31.32,10.44,42.87,12.31,37.28,12.31,37.28-4.11,20.14-2.24,24.61,17.52,63,19.39,69,1.86,8.95,1.86,10.06-2.61,3.36-1.86,7.46a37.66,37.66,0,0,1,.74,5.59s-2.61,4.1-2.61,5.6,21.62,8.94,25.72,9.69,13.05-1.12,13.05-2.24V438.32c0-4.1-2.61-13.05-4.47-20.5s-6.34-42.51-8.2-53.32S387.41,341,387.41,341s24.24-67.86,24.61-82-7.83-35.42-7.83-35.42-49.58,20.51-58.53,20.51S326.27,243,326.27,243Z" style="fill:#263238;stroke:#263238;stroke-miterlimit:10"></path><path d="M354.19,317.07c4.14-15,12.72-46.13,12.72-47.26" style="fill:none;stroke:#737373;stroke-miterlimit:10"></path><path d="M404.32,440.54c.16,3.11.16,6.08.16,6.08" style="fill:none;stroke:#737373;stroke-miterlimit:10"></path><path d="M389.5,334.1,387.41,341s14.64,91,15.85,92.65a6.81,6.81,0,0,1,.69,2.61" style="fill:none;stroke:#737373;stroke-miterlimit:10"></path><path d="M352,325s.31-1.14.85-3.09" style="fill:none;stroke:#737373;stroke-miterlimit:10"></path><path d="M369.52,263.84s9.32-10.06,20.13-15.28" style="fill:none;stroke:#737373;stroke-miterlimit:10"></path><path d="M380,249.31s7.83-5.6,16.4-6" style="fill:none;stroke:#737373;stroke-miterlimit:10"></path><path d="M292,220.62s-5.53,9.53-12.92,20.91-15.68,21.54-15.68,21.54l22.14-2.77s18.15-13.84,25.84-23.38a66.48,66.48,0,0,0,10.77-19.07Z" style="fill:#c9c9c9;stroke:#263238;stroke-miterlimit:10"></path><path d="M293.57,206.78a2.84,2.84,0,0,0-1.54,3.38c.62,2.46-2.15,10.46-1.23,11.69s13.12,8,23.27,5.18,9.65-8.56,9.95-10.1-2.46-11.38-2.46-11.38Z" style="fill:#7E57C2;stroke:#263238;stroke-miterlimit:10"></path><path d="M297.88,133s-13.54,16.91-13.54,21.83,8.92,20,9.54,22.77,1.23,8.3.61,10.76-3.07,8.31-.61,11.38-.92,5.23-.31,7.08a27.07,27.07,0,0,0,1.23,3.07s4,5.85,13.23,6.77,12.61-2.77,12.61-2.77,3.08,27.38,4.92,31.38,22.15,10.45,31.38,7.69S381.85,240.3,388,237.54s18.76-9.54,19.69-12.92-3.69-14.46-4.62-15.38-31.37-67.67-39.68-74.75-35.37-7.69-41.83-7.07S301.26,131.11,297.88,133Z" style="fill:#7E57C2;stroke:#263238;stroke-miterlimit:10"></path><path d="M304.51,187.53s8.84,12.09,7.86,14.06-12.32,3-8.87,4.44,14.29,1.48,14.29,1.48-10.32-17.52-13.28-20" style="fill:#263238;stroke:#263238;stroke-linecap:round;stroke-linejoin:round"></path><path d="M320.64,213.85s-1.85-7.07-8.92-16.61-22.45-32.6-22.45-32.6" style="fill:none;stroke:#263238;stroke-miterlimit:10"></path><path d="M260.35,107.43s-4.61.92-4.61,5.22,2.77,16.61,6.46,19.08,8.3-.62,8.3-.62l-8-24.61Z" style="fill:#263238;stroke:#263238;stroke-linecap:round;stroke-linejoin:round"></path><path d="M297.57,152.64s5.54,16.92,6.46,16.61l.92-.31,2.16-13.22Z" style="fill:#263238;stroke:#263238;stroke-linecap:round;stroke-linejoin:round"></path><path d="M298.8,147.1s-1.84,3.08-1.23,5.54,18.15,16.92,18.15,16.92l-8.31-24.92S300.65,143.11,298.8,147.1Z" style="fill:#7E57C2;stroke:#263238;stroke-linecap:round;stroke-linejoin:round"></path><path d="M295.72,145.57s9.23,6.15,11.39,10.15S316,171.1,316,168.33s2.46-31.68,3.38-34.14S311.1,121,311.1,121s-4.61,2.46-8.61,9.23A88.46,88.46,0,0,0,295.72,145.57Z" style="fill:#fff;stroke:#263238;stroke-linecap:round;stroke-linejoin:round"></path><path d="M295.72,145.57s3.14,2.09,6.18,4.62L307.23,128l-4.77,2.2A89.2,89.2,0,0,0,295.72,145.57Z" style="fill:#263238;stroke:#263238;stroke-linecap:round;stroke-linejoin:round"></path><path d="M259.12,105.89s-10.76-8.31-11.38-10.46,11.69-16.92,19.07-19.38,23.69,0,28,1.85,6.77,3.07,8.31,9.22,1.84,8.62,1.53,10.46.62,15.38.62,15.38-11.07-13.22-18.15-17.22S273,97,266.81,99.12,259.12,105.89,259.12,105.89Z" style="fill:#263238;stroke:#263238;stroke-linecap:round;stroke-linejoin:round"></path><path d="M257.58,103.43s7.08,20.3,8.62,26.14,11.38,20.3,14.76,21.53,11.07-.3,13.53-1.84S308,131.11,309,127.11s-2.77-12.3-3.69-14.15-7.07-10.15-9.54-13.53S294.19,93,294.8,89s-8.92-5.54-13.53-2.77-8,7.08-11.69,7.08-6.46-3.08-10.77-1.23S257.58,103.43,257.58,103.43Z" style="fill:#fff;stroke:#263238;stroke-linecap:round;stroke-linejoin:round"></path><polyline points="273.27 115.42 275.73 131.72 286.5 129.88" style="fill:none;stroke:#263238;stroke-linecap:round;stroke-linejoin:round"></polyline><path d="M275.73,131.73s-4,8-4,11.07.31,4,3.69,2.15l7.39-4s14.15-.3,15.07-2.15-4-4-5.54-4.61-10.76-3.39-10.76-3.39Z" style="fill:#263238;stroke:#263238;stroke-linecap:round;stroke-linejoin:round"></path><path d="M277.27,107.73s4-4.92,12-4.92" style="fill:none;stroke:#263238;stroke-linecap:round;stroke-linejoin:round;stroke-width:2px"></path><path d="M271.12,109.27S264.66,106.5,260,109" style="fill:none;stroke:#263238;stroke-linecap:round;stroke-linejoin:round;stroke-width:2px"></path><path d="M257.28,115.12s1.84,8.61,4.3,8.61a73.33,73.33,0,0,0,9-1.42,2.42,2.42,0,0,0,1.93-2.51L272,112S264,111.42,257.28,115.12Z" style="fill:none;stroke:#263238;stroke-linecap:round;stroke-linejoin:round"></path><path d="M294,107.94s1.13,8.78-1.44,9.76a85.49,85.49,0,0,1-9.47,2.17,3.14,3.14,0,0,1-3.58-2.17l-2-6.76S285.63,107.18,294,107.94Z" style="fill:none;stroke:#263238;stroke-linecap:round;stroke-linejoin:round"></path><line x1="272.04" y1="112.04" x2="277.49" y2="110.94" style="fill:none;stroke:#263238;stroke-linecap:round;stroke-linejoin:round"></line><line x1="272.35" y1="113.89" x2="277.88" y2="112.96" style="fill:none;stroke:#263238;stroke-linecap:round;stroke-linejoin:round"></line><line x1="294.02" y1="107.94" x2="302.49" y2="105.27" style="fill:none;stroke:#263238;stroke-linecap:round;stroke-linejoin:round"></line><path d="M269.52,118c.27,1.33-.11,2.53-.86,2.68s-1.58-.8-1.85-2.13.12-2.54.87-2.69S269.25,116.63,269.52,118Z" style="fill:#263238"></path><path d="M288,114c.27,1.33-.12,2.53-.87,2.68s-1.57-.8-1.84-2.13.11-2.54.86-2.69S287.71,112.63,288,114Z" style="fill:#263238"></path><path d="M284.34,120a13.21,13.21,0,0,0,9.54.92" style="fill:none;stroke:#263238;stroke-linecap:round;stroke-linejoin:round"></path><path d="M273,121.57s-1.53,3.7-4.92,4.31" style="fill:none;stroke:#263238;stroke-linecap:round;stroke-linejoin:round"></path><path d="M303.41,94.2s-1.84-13.53-9.84-17.53-19.68-1.54-19.68-1.54,19.68-6.15,26.76,2.46,6.15,16.3,6.15,16.3Z" style="fill:gray;stroke:#263238;stroke-linecap:round;stroke-linejoin:round"></path><path d="M308.64,93s-12.61.92-12,8,4.3,20.6,7.38,23.68,13.23-1.23,15.69-3.08,1.12-9.82-1.23-18.45C316.64,96.35,313.57,92.66,308.64,93Z" style="fill:#525252;stroke:#263238;stroke-linecap:round;stroke-linejoin:round"></path><path d="M318.49,103.12c-1.58-5.8-4.07-9.33-7.84-10-2.31.4-9.13,1.94-9.39,6-.31,4.92,5.23,22.15,6.46,24s6.46.93,12-1.54C322.18,119.73,320.84,111.75,318.49,103.12Z" style="fill:#263238;stroke:#263238;stroke-linecap:round;stroke-linejoin:round"></path><polygon points="312.95 151.1 315.72 169.56 320.64 149.56 312.95 151.1" style="fill:#263238;stroke:#263238;stroke-linecap:round;stroke-linejoin:round"></polygon><polygon points="312.95 151.1 325.25 161.25 323.71 125.27 315.41 126.19 312.95 151.1" style="fill:#7E57C2;stroke:#263238;stroke-linecap:round;stroke-linejoin:round"></polygon><path d="M317.56,235.08S287.73,248,274.19,253.22s-15.68,5.85-15.68,5.85-14.46-.93-17.84-.93-12,4.93-14.46,5.54-4.92,2.15-3.69,3.69,3.38,1.54,6.46.93,9.53-2.16,9.53-2.16-8.3,7.08-9.22,7.38-14.46,7.39-14.46,7.39-1.23,2.76,3.69,2.76S233,281.21,233,281.21s13.53,1.54,14.76,1.54,16.3-8,16.3-8,28.92-4.92,37.22-6.45,32.61-10.16,36.6-11.69,6.77-8,7.69-9.23S317.56,235.08,317.56,235.08Z" style="fill:#fff;stroke:#263238;stroke-miterlimit:10"></path><path d="M345.86,149.57s-11.69,8.61-12.3,15.68-2.77,13.84-5.23,20.92.92,12.61,1.23,13.84-7.69,9.84-8.92,13.84,1.23,12.92,1.23,12.92,32.91,11.69,35.07,11.69,12-14.15,12-17.84-.92-8.61,1.23-10.77,5.54-7.07,5.54-10.45-.31-18.77-.31-18.77" style="fill:#7E57C2;stroke:#263238;stroke-miterlimit:10"></path><path d="M321.38,224.39l-3.85,9.14a2.22,2.22,0,0,0,.64,3.07c6.58,4.32,28.63,18.68,30.46,18.16,2.15-.61,11.07-13.53,8.31-16.3S321.38,224.39,321.38,224.39Z" style="fill:#7E57C2;stroke:#263238;stroke-miterlimit:10"></path><path d="M370,203.56s-30.54-2.46-21.67,1A54.93,54.93,0,0,0,366.07,208" style="fill:none;stroke:#263238;stroke-linecap:round;stroke-linejoin:round"></path><path d="M358.19,232.63s-45.33-21.18-30.06-13.3,23.16,12.81,23.16,12.81" style="fill:none;stroke:#263238;stroke-linecap:round;stroke-linejoin:round"></path></g></svg>