<svg xmlns="http://www.w3.org/2000/svg" viewBox="0 0 500 500"><g id="freepik--background-simple--inject-2"><path d="M451.91,189.72q-2-4.58-4.24-9C394.83,75.16,254.57-13.94,144,55.68a104.73,104.73,0,0,0-48,73c-8.34,52.6-17.94,110-45.16,156-14.84,25.06-31.14,55.33-25.76,86,8.54,48.68,60,71.12,101.41,78.36,44.09,7.7,87.55-2.8,127.4-22.83,41.82-21,77.45-50.11,122.08-65.31,20.79-7.09,44.33-10.63,61.83-25.45C480.89,299,473.06,237.14,451.91,189.72Z" style="fill:#7E57C2"></path><path d="M451.91,189.72q-2-4.58-4.24-9C394.83,75.16,254.57-13.94,144,55.68a104.73,104.73,0,0,0-48,73c-8.34,52.6-17.94,110-45.16,156-14.84,25.06-31.14,55.33-25.76,86,8.54,48.68,60,71.12,101.41,78.36,44.09,7.7,87.55-2.8,127.4-22.83,41.82-21,77.45-50.11,122.08-65.31,20.79-7.09,44.33-10.63,61.83-25.45C480.89,299,473.06,237.14,451.91,189.72Z" style="fill:#fff;opacity:0.7000000000000001"></path></g><g id="freepik--Dresser--inject-2"><polyline points="58.02 54 276 54 276 477 45 477 45 54 51.48 54" style="fill:none;stroke:#263238;stroke-miterlimit:10"></polyline><rect x="199" y="63.16" width="70" height="404.69" style="fill:none;stroke:#263238;stroke-miterlimit:10"></rect><rect x="125" y="63.16" width="66" height="404.69" style="fill:none;stroke:#263238;stroke-miterlimit:10"></rect><line x1="117" y1="173.23" x2="117" y2="165.87" style="fill:none;stroke:#263238;stroke-miterlimit:10"></line><polyline points="117 159.34 117 63.16 52 63.16 52 467.84 117 467.84 117 182.21" style="fill:none;stroke:#263238;stroke-miterlimit:10"></polyline></g><g id="freepik--Plants--inject-2"><path d="M431.66,268.89s0-4.66-6.53-11.19-10.71-10.25-10.71-10.25-3.26,10.72,2.79,17.24a114,114,0,0,0,14.45,12.58Z" style="fill:#7E57C2"></path><path d="M422.19,298s0-4.65-6.52-11.18S405,276.55,405,276.55s-3.26,10.72,2.8,17.24a114.44,114.44,0,0,0,14.44,12.58Z" style="fill:#7E57C2"></path><path d="M431.25,276.82s.49-4.63,7.67-10.43,11.74-9.06,11.74-9.06,2.11,11-4.61,16.85a115,115,0,0,1-15.69,11Z" style="fill:#7E57C2"></path><path d="M419.81,311.19s1-4.56,8.72-9.57,12.63-7.78,12.63-7.78.94,11.16-6.35,16.27a114.84,114.84,0,0,1-16.76,9.28Z" style="fill:#7E57C2"></path><path d="M422,348.66s0-4.66,6.52-11.19,10.72-10.25,10.72-10.25,3.26,10.72-2.8,17.24A113.51,113.51,0,0,1,422,357Z" style="fill:#7E57C2"></path><path d="M421.85,357.8s.66-4.61-4.87-12-9.15-11.67-9.15-11.67-4.75,10.14.32,17.46a114.28,114.28,0,0,0,12.51,14.5Z" style="fill:#7E57C2"></path><path d="M415.42,384.91s0-4.66,6.52-11.19,10.72-10.25,10.72-10.25,3.26,10.72-2.8,17.24a113.51,113.51,0,0,1-14.44,12.58Z" style="fill:#7E57C2"></path><path d="M419.78,409.48S418.59,405,423.25,397,431,384.38,431,384.38s5.87,9.54,1.67,17.38a114.41,114.41,0,0,1-10.79,15.83Z" style="fill:#7E57C2"></path><path d="M432.25,267.69a132.41,132.41,0,0,1-1.79,14.47c-2.58,13.32-9,21.92-11.6,33.95s4.82,27.54,2.84,43-8,24-6.28,34.37S426.48,433,426.48,433" style="fill:none;stroke:#263238;stroke-linecap:round;stroke-linejoin:round"></path><line x1="431.18" y1="279.92" x2="438.21" y2="274.52" style="fill:none;stroke:#263238;stroke-linecap:round;stroke-linejoin:round"></line><line x1="431.51" y1="273.71" x2="428.57" y2="268.47" style="fill:none;stroke:#263238;stroke-linecap:round;stroke-linejoin:round"></line><path d="M419.25,315.56s5.88-4.42,11.93-8.83" style="fill:none;stroke:#263238;stroke-linecap:round;stroke-linejoin:round"></path><path d="M422.19,306.37s-4.9-9.61-10.46-16" style="fill:none;stroke:#263238;stroke-linecap:round;stroke-linejoin:round"></path><path d="M422.19,355.28a72.78,72.78,0,0,1,12.59-16.83" style="fill:none;stroke:#263238;stroke-linecap:round;stroke-linejoin:round"></path><path d="M421.05,361.82a82.56,82.56,0,0,0-6.38-12.09c-3.43-5.07-3.92-5.73-3.92-5.73" style="fill:none;stroke:#263238;stroke-linecap:round;stroke-linejoin:round"></path><path d="M415.42,393.47a78.46,78.46,0,0,1,5.3-10.72,68.2,68.2,0,0,1,6.87-9" style="fill:none;stroke:#263238;stroke-linecap:round;stroke-linejoin:round"></path><path d="M421.9,417.59a20,20,0,0,1,1.76-10.32c2.45-4.74,5.23-10.95,6.38-13.4" style="fill:none;stroke:#263238;stroke-linecap:round;stroke-linejoin:round"></path><path d="M388.94,331.13s-.51-2.92,2.88-7.72,5.6-7.59,5.6-7.59,3.21,6.37.12,11.11a73,73,0,0,1-7.69,9.46Z" style="fill:#7E57C2"></path><path d="M398,348.35s-.51-2.92,2.87-7.72,5.61-7.59,5.61-7.59,3.21,6.37.12,11.11a73,73,0,0,1-7.69,9.46Z" style="fill:#7E57C2"></path><path d="M390.06,336.06s-.81-2.85-5.94-5.7-8.35-4.41-8.35-4.41-.13,7.13,4.72,10.06a72.84,72.84,0,0,0,11,5.19Z" style="fill:#7E57C2"></path><path d="M401,356.37s-1.11-2.75-6.51-5.05-8.76-3.51-8.76-3.51.62,7.11,5.75,9.52a73.26,73.26,0,0,0,11.51,4Z" style="fill:#7E57C2"></path><path d="M403.68,380.1s-.5-2.92-5.3-6.3-7.84-5.27-7.84-5.27-.88,7.08,3.63,10.51a73.48,73.48,0,0,0,10.42,6.32Z" style="fill:#7E57C2"></path><path d="M404.74,385.83s-.91-2.82,1.75-8.06,4.47-8.31,4.47-8.31,4.09,5.85,1.7,11a72.3,72.3,0,0,1-6.27,10.45Z" style="fill:#7E57C2"></path><path d="M412.93,409.39s.34-2.94,4.94-6.59,7.52-5.71,7.52-5.71,1.28,7-3,10.7a73,73,0,0,1-10.05,6.91Z" style="fill:#7E57C2"></path><path d="M411.72,402.12s-.51-2.92-5.31-6.3-7.83-5.26-7.83-5.26-.88,7.07,3.63,10.5a71.84,71.84,0,0,0,10.42,6.32Z" style="fill:#7E57C2"></path><path d="M411.65,418s.26-3-3.53-7.45-6.24-7.07-6.24-7.07-2.65,6.62.84,11.08a73,73,0,0,0,8.48,8.75Z" style="fill:#7E57C2"></path><path d="M388.44,330.45a86.57,86.57,0,0,0,2.69,8.88c3.06,8.07,8,12.76,11,20s0,17.79,2.89,27.27,7.63,14.21,7.67,20.86-2.59,25.16-2.59,25.16" style="fill:none;stroke:#263238;stroke-linecap:round;stroke-linejoin:round"></path><line x1="390.44" y1="338" x2="385.44" y2="335.38" style="fill:none;stroke:#263238;stroke-linecap:round;stroke-linejoin:round"></line><line x1="389.56" y1="334.14" x2="390.83" y2="330.54" style="fill:none;stroke:#263238;stroke-linecap:round;stroke-linejoin:round"></line><path d="M401.79,359.05s-4.17-2.13-8.44-4.24" style="fill:none;stroke:#263238;stroke-linecap:round;stroke-linejoin:round"></path><path d="M399,353.61a59.75,59.75,0,0,1,4.82-11.16" style="fill:none;stroke:#263238;stroke-linecap:round;stroke-linejoin:round"></path><path d="M404.26,384.28a46.36,46.36,0,0,0-9.73-9.19" style="fill:none;stroke:#263238;stroke-linecap:round;stroke-linejoin:round"></path><path d="M405.68,388.26a53,53,0,0,1,2.69-8.28c1.6-3.55,1.84-4,1.84-4" style="fill:none;stroke:#263238;stroke-linecap:round;stroke-linejoin:round"></path><path d="M412.42,412.54a43.23,43.23,0,0,1,5.37-5.57,28.67,28.67,0,0,0,3.49-3" style="fill:none;stroke:#263238;stroke-linecap:round;stroke-linejoin:round"></path><path d="M412.65,407.49a49.82,49.82,0,0,0-4.49-6.14,43.49,43.49,0,0,0-5.28-4.9" style="fill:none;stroke:#263238;stroke-linecap:round;stroke-linejoin:round"></path><path d="M411.2,423.32A12.71,12.71,0,0,0,409,417c-2.06-2.7-4.47-6.3-5.46-7.71" style="fill:none;stroke:#263238;stroke-linecap:round;stroke-linejoin:round"></path><path d="M430.39,477H403.17a2.14,2.14,0,0,1-2.15-2.14l-6.75-41.95h45l-6.75,41.95A2.14,2.14,0,0,1,430.39,477Z" style="fill:#263238;stroke:#263238;stroke-linecap:round;stroke-linejoin:round"></path><line x1="396.04" y1="438.94" x2="428.45" y2="438.94" style="fill:none;stroke:#fff;stroke-linecap:round;stroke-linejoin:round"></line><line x1="431.5" y1="438.94" x2="436.83" y2="438.94" style="fill:none;stroke:#fff;stroke-linecap:round;stroke-linejoin:round"></line><path d="M48.86,271.16s-.23-6-2.77-10.16-11.78-7.15-16.62-5.08a65.36,65.36,0,0,0-7.16,3.47,54.2,54.2,0,0,1,13.62,6.46A34.14,34.14,0,0,0,48.86,271.16Z" style="fill:#7E57C2"></path><path d="M58.55,274.16s-5.54-5.31-6.46-12.7S59,242.54,59,242.54A81.71,81.71,0,0,1,65.25,258C67.55,266.31,58.55,274.16,58.55,274.16Z" style="fill:#7E57C2"></path><path d="M69.17,271.85s-1.38-6.92,1.15-11.77,9.24-4.39,15.93-2.31S95,259.85,95,259.85a99.58,99.58,0,0,1-14.55,8.08A89.16,89.16,0,0,1,69.17,271.85Z" style="fill:#7E57C2"></path><path d="M58.61,296.73a.59.59,0,0,1-.59-.6v-33a.59.59,0,0,1,.59-.6.6.6,0,0,1,.6.6v33A.6.6,0,0,1,58.61,296.73Z" style="fill:#263238"></path><path d="M61.38,296.73H61.3a.6.6,0,0,1-.51-.67c.12-.83,2.91-20.38,12.38-31.24a.59.59,0,0,1,.84-.06.6.6,0,0,1,.06.84C64.83,276.18,62,296,62,296.21A.59.59,0,0,1,61.38,296.73Z" style="fill:#263238"></path><path d="M55.84,296.27h0a.6.6,0,0,1-.59-.61c0-.19.09-19-11.09-27.92a.59.59,0,0,1,.74-.93c11.64,9.31,11.55,28.07,11.54,28.87A.6.6,0,0,1,55.84,296.27Z" style="fill:#263238"></path><path d="M65.08,296a.45.45,0,0,1-.16,0,.59.59,0,0,1-.42-.73A38.68,38.68,0,0,1,69.9,284a.6.6,0,0,1,1,.7,38,38,0,0,0-5.22,10.88A.59.59,0,0,1,65.08,296Z" style="fill:#263238"></path><path d="M68.71,286.86s-.23-6.47,2.54-7.39,5.31,1.38,7.39,2.77S83,285,83,289.17s-1.61,11.77-1.61,11.77-2.31-7.16-6.24-10.39S68.71,286.86,68.71,286.86Z" style="fill:#7E57C2"></path><path d="M51.69,296.27a.6.6,0,0,1-.57-.42c0-.05-1.85-5.64-6-9a.59.59,0,0,1,.73-.93c4.48,3.53,6.36,9.28,6.44,9.52a.6.6,0,0,1-.39.75Z" style="fill:#263238"></path><path d="M48.86,288.93s.92-4.15-1.39-7.15-7.85-2.31-10.62.92-6.69,12.93-6.69,12.93,5.54-4.39,12-4.39S48.86,288.93,48.86,288.93Z" style="fill:#7E57C2"></path><polygon points="67.25 331.65 48.83 331.65 39.62 301.18 76.46 301.18 67.25 331.65" style="fill:#263238;stroke:#263238;stroke-linecap:round;stroke-linejoin:round"></polygon><rect x="39.51" y="296.13" width="37.05" height="5.05" style="fill:#263238;stroke:#263238;stroke-linecap:round;stroke-linejoin:round"></rect><path d="M27.31,330.87V476.65h5.33V419.4H126.5v57.25h5.33V330.87Zm5.33,83.21V357.5H126.5v56.58Z" style="fill:#263238;stroke:#263238;stroke-linecap:round;stroke-linejoin:round"></path></g><g id="freepik--Picture--inject-2"><rect x="320.59" y="32.33" width="104.82" height="206.67" style="fill:none;stroke:#263238;stroke-miterlimit:10"></rect><rect x="325" y="37.08" width="96" height="197.18" style="fill:none;stroke:#263238;stroke-miterlimit:10"></rect><path d="M378.83,46.14s-5.21-4.69-10.95-.52-2.25,11.64-2.25,11.64a11.5,11.5,0,0,0,.52,3.48c.52,1.21,1.73,2.78,1.91,3.3a6.54,6.54,0,0,1-.35,4.69c-1,1.91-12,4-13.73,9.21s-3.65,21.37-4,22.76-6.09,15.12-6.61,17.55a53.13,53.13,0,0,1-1.91,6.09s-7.47,4.69-7.82,5.9.7.87,1.74.87.69-.69,1,0-1.74,5.56-1.74,5.56.35,1.22,1.39.52a4.94,4.94,0,0,0,1.57-2.25l-.75,4.93a.78.78,0,0,0,.69.9h0a.79.79,0,0,0,.82-.46l1.85-4.16-.21,3.86c-.19,1.25.75,2.05,1.42.83l.51-1.54.71-3.84.27,3.3a.75.75,0,0,0,.92.66h0a.75.75,0,0,0,.56-.7l.16-5.17a18.6,18.6,0,0,0,1.39-5.22,16.37,16.37,0,0,1,.17-2.78s9-13.73,9.91-17.38,1.91-8.86,2.43-9.73a15.34,15.34,0,0,0,1-3s2.09,5,1.57,9-2.44,9.9-3,13.72-1.39,14.95-1.39,21.38,2.61,20.5,2.78,21.72-3.47,14.07-2.43,20,1.74,22.77,1.56,24.16a19.23,19.23,0,0,1-2.43,5.56c-.87,1.39-1,3.47-.35,4.17s3.31.87,4.52.52,4.17-4.35,4.17-6.78-.17-4.34.18-9.56,3.65-19.11,3.65-24,1.39-11.29,2.25-15.46.35-8.52,1.22-11,1.91-18.07,1.91-18.07h1s3.3,20.33,3.82,23.46,1.74,9.55,1.91,10.77,1.22,16.51,1.56,19.81,2.26,8.17,3,11.64.87,10.08,1.21,12.17a16.59,16.59,0,0,0,3,6.08c.87,1,3.65.35,4.86-.7s-.17-2.78-1-5-1.91-2.44-1.91-7,.69-20.5.69-27.1-2.08-16.51-2.08-19.12,2.61-16.16,2.43-23.11a146.42,146.42,0,0,0-2.08-19.11c-.52-2.61-2.44-6.61-3.13-9.21s.17-9.21.17-9.21l3.83,9.9s2.08,4,4.17,8.86a50.55,50.55,0,0,0,5.73,9.56s.52,4.87.7,6.43a14.72,14.72,0,0,0,.52,3c.17.53.52,5.22.69,5.74s.7.17.7-.52a8.32,8.32,0,0,1,.34-3c.35-.52.7,1.91.87,3.13s.7,2.09,1.22.87a17.57,17.57,0,0,0,.52-4.52s.7-.35.87,1.22,2.26,4.86,2.78,3.82-.87-6.43-.87-6.43,1.39,3.48,2.09,4,1.21,0,.87-1.74-1.92-6.08-1.92-6.08,2.78,1.22,2.78-.18-2.25-2.25-3.47-3.82a31.57,31.57,0,0,0-4.52-4s-4-13.56-4.86-15.82-3.83-6.25-4-7.47-2.09-10.08-2.09-10.08-.52-11.47-2.26-13.55-7.64-2.44-9.38-3.83S379,67.69,379,66.47V62.82a7.43,7.43,0,0,0,1.73-3.47c.18-1.74.18-3.13.18-3.13A11.41,11.41,0,0,0,378.83,46.14Z" style="fill:gray"></path><path d="M376.34,55.85s3-2.86,3-4.65a6.44,6.44,0,0,0-4.29-6.07c-3.39-1.25-7.5,1.07-8.57,4.11s2.14,5.72,2.86,6.61a6.34,6.34,0,0,0,2.68,1.43l.89,60.77H374l.18-60.41Z" style="fill:none;stroke:#c7c7c7;stroke-miterlimit:10"></path><path d="M373.48,125.91a19.53,19.53,0,0,1-2.51,3.22c-.89.72-1.25.36-1.43.89" style="fill:none;stroke:#c7c7c7;stroke-miterlimit:10"></path><path d="M373.12,129s-3.4,8.58-3.22,12.16.18,4.28.18,6.79.18,4.47.18,6.43" style="fill:none;stroke:#c7c7c7;stroke-miterlimit:10"></path><path d="M370.8,136.64s1.42,2,.35,6.61" style="fill:none;stroke:#c7c7c7;stroke-miterlimit:10"></path><path d="M372.05,72.83s-8.05,3.4-9.12,6.08,2.5,2.14,3.4,2.14" style="fill:none;stroke:#c7c7c7;stroke-miterlimit:10"></path><path d="M372.05,74.8s-11.08,7-10.55,8.4,5.18,1.61,5.18,1.61" style="fill:none;stroke:#c7c7c7;stroke-miterlimit:10"></path><path d="M372.4,78.55s-10.18,7-10,8.76,4.83.36,4.83.36" style="fill:none;stroke:#c7c7c7;stroke-miterlimit:10"></path><path d="M372.22,82.13s-10,8.93-9.83,9.47,2.86.18,2.86.18" style="fill:none;stroke:#c7c7c7;stroke-miterlimit:10"></path><path d="M372.22,86.06s-9.65,6.61-9.29,8.22,3.4.71,3.4.71" style="fill:none;stroke:#c7c7c7;stroke-miterlimit:10"></path><path d="M372.05,88.92s-7.51,7.15-8.23,9.11.36,2.15.36,2.15l.54.71" style="fill:none;stroke:#c7c7c7;stroke-miterlimit:10"></path><path d="M372.22,92.67s-7.86,7.51-7.68,9.29a2,2,0,0,0,1.61,2" style="fill:none;stroke:#c7c7c7;stroke-miterlimit:10"></path><path d="M372.22,95.17s-7.14,9.3-7.14,11.08.71,2.33.71,2.33" style="fill:none;stroke:#c7c7c7;stroke-miterlimit:10"></path><path d="M372.22,97.5s-4.82,8.22-5.18,9.65a12.27,12.27,0,0,0-.36,2.68" style="fill:none;stroke:#c7c7c7;stroke-miterlimit:10"></path><line x1="372.22" y1="101.61" x2="368.47" y2="109.11" style="fill:none;stroke:#c7c7c7;stroke-miterlimit:10"></line><path d="M372.4,105.18s-3.57,5.9-4.29,6.61" style="fill:none;stroke:#c7c7c7;stroke-miterlimit:10"></path><path d="M372.4,108.76s-3,4.11-4.46,5-4.12,1.07-4.47.36-.36-2.86-.54-3.58" style="fill:none;stroke:#c7c7c7;stroke-miterlimit:10"></path><path d="M363.47,114.12s-.54.89-1.43,2.68-1.61,2.14-1.61,2.14" style="fill:none;stroke:#c7c7c7;stroke-miterlimit:10"></path><line x1="362.04" y1="116.8" x2="360.61" y2="116.26" style="fill:none;stroke:#c7c7c7;stroke-miterlimit:10"></line><line x1="362.75" y1="112.33" x2="360.97" y2="111.62" style="fill:none;stroke:#c7c7c7;stroke-miterlimit:10"></line><path d="M372.4,111.08s-5.54,4.65-6.25,7.15-4.83,8-5.36,10.54-.18,3.93-.54,7.51S359,142,359,144.14" style="fill:none;stroke:#c7c7c7;stroke-miterlimit:10"></path><path d="M360.61,128.24a11.31,11.31,0,0,0-1.61,3.57" style="fill:none;stroke:#c7c7c7;stroke-miterlimit:10"></path><path d="M360.43,133.6a13.76,13.76,0,0,0-1.79,3.93" style="fill:none;stroke:#c7c7c7;stroke-miterlimit:10"></path><path d="M372.58,113.22s-3.93,3.94-4.11,4.83,3.93-2.5,3.93-2.5-2.68,4.47-4.29,7.86-4.82,7-4.82,10.72,1.25,7.15,1.79,10.19,1.6,7.51,1.43,12.51-.36,7.33-.36,10.19-.18,7.51-.54,8.4a33.07,33.07,0,0,0-.89,3.75" style="fill:none;stroke:#c7c7c7;stroke-miterlimit:10"></path><path d="M373.3,118.76s-6.08,13.23-7,17.34-1.79,13.41-2.15,15.37-.18,9.3-.36,12.33-.71,18.95-.71,20.56S362,204,362,205.63a10.46,10.46,0,0,1-1.61,5.18,24,24,0,0,0-1.79,3.22" style="fill:none;stroke:#c7c7c7;stroke-miterlimit:10"></path><path d="M363.82,154A12.61,12.61,0,0,0,361.5,162c.36,3.57-1.61,11.79-1.61,14.47s.18,7.69.36,8.76.18,4.47.36,7.51.36,6.43.36,8.76a9.43,9.43,0,0,1-1.26,5c-.89,2-2.32,5.18-2.32,5.18" style="fill:none;stroke:#c7c7c7;stroke-miterlimit:10"></path><line x1="364" y1="204.73" x2="362.39" y2="199.55" style="fill:none;stroke:#c7c7c7;stroke-miterlimit:10"></line><path d="M366.86,160.94a16.42,16.42,0,0,1,1.08,4.29" style="fill:none;stroke:#c7c7c7;stroke-miterlimit:10"></path><path d="M373.3,122.52s.35,2.86-1.61,3.93-3.58.36-6.44-2.5-2.14-6.26,1.61-7.69" style="fill:none;stroke:#c7c7c7;stroke-miterlimit:10"></path><path d="M369.54,144a17.57,17.57,0,0,0-1.07,4.65" style="fill:none;stroke:#c7c7c7;stroke-miterlimit:10"></path><path d="M372.22,63.36s-1.42,1.25-1.42,2.14-2.33,3.76-4.83,6.08-6.08.89-9.12,5.72a22.89,22.89,0,0,0-3.57,13.23c0,4.28,0,2.85-.72,6.43s-7.14,21.45-8.4,24.49-2,4.11-3,4.82-3.94,3-4.47,3.22" style="fill:none;stroke:#c7c7c7;stroke-miterlimit:10"></path><path d="M371.87,67.83s-3.4,3-5.72,4.64-8.58,3.58-10,7.51-1.61,9.47-1.79,12.51-3,11.44-3.57,13.23-9.65,20.55-9.65,20.55" style="fill:none;stroke:#c7c7c7;stroke-miterlimit:10"></path><path d="M371.87,69.26S367.76,72.12,364,75s-5.18,8.57-5.89,13.22-3,13.76-3.76,17-8.58,17.87-9.11,19.48a33.67,33.67,0,0,0-1.43,4.65c-.36,1.79-.54,6.79-.54,6.79" style="fill:none;stroke:#c7c7c7;stroke-miterlimit:10"></path><path d="M364,75s-4.46,2.86-5.89,6.25-3.22,14.48-3.94,18.77-10,24-10.9,25.56-3.75,7.32-4.65,9.65" style="fill:none;stroke:#c7c7c7;stroke-miterlimit:10"></path><path d="M341.48,129a47.23,47.23,0,0,0-3.93,4.83" style="fill:none;stroke:#c7c7c7;stroke-miterlimit:10"></path><line x1="342.2" y1="128.59" x2="341.13" y2="137.89" style="fill:none;stroke:#c7c7c7;stroke-miterlimit:10"></line><path d="M365.63,57.26A8.82,8.82,0,0,0,369,59.43a3.88,3.88,0,0,0,2.86-.54" style="fill:none;stroke:#c7c7c7;stroke-miterlimit:10"></path><polyline points="367.04 60.68 369.9 60.86 371.69 59.96" style="fill:none;stroke:#c7c7c7;stroke-miterlimit:10"></polyline><path d="M371.51,61.39s.18,1.07-2.68,1.25" style="fill:none;stroke:#c7c7c7;stroke-miterlimit:10"></path><path d="M374,72.83s8,3.4,9.12,6.08-2.51,2.14-3.4,2.14" style="fill:none;stroke:#c7c7c7;stroke-miterlimit:10"></path><path d="M374,74.8s11.08,7,10.55,8.4-5.19,1.61-5.19,1.61" style="fill:none;stroke:#c7c7c7;stroke-miterlimit:10"></path><path d="M373.66,78.55s10.19,7,10,8.76-4.82.36-4.82.36" style="fill:none;stroke:#c7c7c7;stroke-miterlimit:10"></path><path d="M373.84,82.13s10,8.93,9.83,9.47-2.86.18-2.86.18" style="fill:none;stroke:#c7c7c7;stroke-miterlimit:10"></path><path d="M373.84,86.06s9.65,6.61,9.3,8.22-3.4.71-3.4.71" style="fill:none;stroke:#c7c7c7;stroke-miterlimit:10"></path><path d="M374,88.92s7.51,7.15,8.22,9.11-.36,2.15-.36,2.15l-.53.71" style="fill:none;stroke:#c7c7c7;stroke-miterlimit:10"></path><path d="M373.84,92.67s7.87,7.51,7.69,9.29a2,2,0,0,1-1.61,2" style="fill:none;stroke:#c7c7c7;stroke-miterlimit:10"></path><path d="M373.84,95.17s7.15,9.3,7.15,11.08-.71,2.33-.71,2.33" style="fill:none;stroke:#c7c7c7;stroke-miterlimit:10"></path><path d="M373.84,97.5s4.83,8.22,5.18,9.65a12.27,12.27,0,0,1,.36,2.68" style="fill:none;stroke:#c7c7c7;stroke-miterlimit:10"></path><line x1="373.84" y1="101.61" x2="377.6" y2="109.11" style="fill:none;stroke:#c7c7c7;stroke-miterlimit:10"></line><path d="M373.66,105.18s3.58,5.9,4.29,6.61" style="fill:none;stroke:#c7c7c7;stroke-miterlimit:10"></path><path d="M373.66,108.76s3,4.11,4.47,5,4.11,1.07,4.47.36.36-2.86.54-3.58" style="fill:none;stroke:#c7c7c7;stroke-miterlimit:10"></path><path d="M382.6,114.12s.54.89,1.43,2.68,1.61,2.14,1.61,2.14" style="fill:none;stroke:#c7c7c7;stroke-miterlimit:10"></path><line x1="384.03" y1="116.8" x2="385.46" y2="116.26" style="fill:none;stroke:#c7c7c7;stroke-miterlimit:10"></line><line x1="383.31" y1="112.33" x2="385.1" y2="111.62" style="fill:none;stroke:#c7c7c7;stroke-miterlimit:10"></line><path d="M373.66,111.08s5.54,4.65,6.26,7.15,4.82,8,5.36,10.54.18,3.93.54,7.51,1.25,5.72,1.25,7.86" style="fill:none;stroke:#c7c7c7;stroke-miterlimit:10"></path><path d="M385.46,128.24a11.31,11.31,0,0,1,1.61,3.57" style="fill:none;stroke:#c7c7c7;stroke-miterlimit:10"></path><path d="M385.64,133.6a13.76,13.76,0,0,1,1.79,3.93" style="fill:none;stroke:#c7c7c7;stroke-miterlimit:10"></path><path d="M373.48,113.22s3.94,3.94,4.12,4.83-3.94-2.5-3.94-2.5,2.68,4.47,4.29,7.86,4.83,7,4.83,10.72-1.25,7.15-1.79,10.19,1.31,7,1.49,12,.36,7.33.36,10.18.18,7.51.54,8.4a36.08,36.08,0,0,1,.89,3.76" style="fill:none;stroke:#c7c7c7;stroke-miterlimit:10"></path><path d="M372.77,118.76s6.08,13.23,7,17.34S384.45,149,384.81,151s.18,9.29.35,12.33.72,18.94.72,20.55S387,203.49,387,205.1a10.43,10.43,0,0,0,1.61,5.18,24,24,0,0,1,1.79,3.22" style="fill:none;stroke:#c7c7c7;stroke-miterlimit:10"></path><path d="M385.16,153.45a12.51,12.51,0,0,1,2.33,8c-.36,3.57,1.61,11.8,1.61,14.48s-.18,7.68-.36,8.76-.18,4.46-.36,7.5S388,198.67,388,201a9.4,9.4,0,0,0,1.26,5c.89,2,2.32,5.19,2.32,5.19" style="fill:none;stroke:#c7c7c7;stroke-miterlimit:10"></path><line x1="384.99" y1="204.21" x2="386.59" y2="199.02" style="fill:none;stroke:#c7c7c7;stroke-miterlimit:10"></line><path d="M382.13,160.42a16.28,16.28,0,0,0-1.08,4.29" style="fill:none;stroke:#c7c7c7;stroke-miterlimit:10"></path><path d="M372.77,122.52s-.36,2.86,1.61,3.93,3.57.36,6.43-2.5,2.15-6.26-1.61-7.69" style="fill:none;stroke:#c7c7c7;stroke-miterlimit:10"></path><path d="M381,144.32a28.94,28.94,0,0,0-1,5.42" style="fill:none;stroke:#c7c7c7;stroke-miterlimit:10"></path><path d="M373.84,63.36s1.43,1.25,1.43,2.14,2.33,3.76,4.83,6.08,6.07.89,9.11,5.72a22.83,22.83,0,0,1,3.58,13.23c0,4.28,0,2.85.71,6.43s7.15,21.45,8.4,24.49,2,4.11,3,4.82,3.93,3,4.47,3.22" style="fill:none;stroke:#c7c7c7;stroke-miterlimit:10"></path><path d="M374.2,67.83s3.4,3,5.72,4.64,8.58,3.58,10,7.51,1.61,9.47,1.78,12.51,3,11.44,3.58,13.23,9.65,20.55,9.65,20.55" style="fill:none;stroke:#c7c7c7;stroke-miterlimit:10"></path><path d="M374.2,69.26s4.11,2.86,7.86,5.72,5.19,8.57,5.9,13.22,3,13.76,3.75,17,8.58,17.87,9.12,19.48a35.1,35.1,0,0,1,1.43,4.65c.36,1.79.54,6.79.54,6.79" style="fill:none;stroke:#c7c7c7;stroke-miterlimit:10"></path><path d="M382.06,75s4.47,2.86,5.9,6.25,3.22,14.48,3.93,18.77,10,24,10.91,25.56,3.75,7.32,4.64,9.65" style="fill:none;stroke:#c7c7c7;stroke-miterlimit:10"></path><path d="M404.58,129a46.73,46.73,0,0,1,3.94,4.83" style="fill:none;stroke:#c7c7c7;stroke-miterlimit:10"></path><line x1="403.87" y1="128.59" x2="404.94" y2="137.89" style="fill:none;stroke:#c7c7c7;stroke-miterlimit:10"></line><path d="M380.44,57.26a8.82,8.82,0,0,1-3.38,2.17,3.88,3.88,0,0,1-2.86-.54" style="fill:none;stroke:#c7c7c7;stroke-miterlimit:10"></path><polyline points="379.02 60.68 376.17 60.86 374.38 59.96" style="fill:none;stroke:#c7c7c7;stroke-miterlimit:10"></polyline><path d="M374.56,61.39s-.18,1.07,2.68,1.25" style="fill:none;stroke:#c7c7c7;stroke-miterlimit:10"></path><polyline points="332.49 58.72 340.33 58.72 355.54 73.01" style="fill:none;stroke:#263238;stroke-miterlimit:10"></polyline><polyline points="409.92 68.4 405.78 68.4 394.71 83.15" style="fill:none;stroke:#263238;stroke-miterlimit:10"></polyline><polyline points="410.85 158.74 406.24 158.74 392.41 148.14" style="fill:none;stroke:#263238;stroke-miterlimit:10"></polyline><polyline points="338.49 194.23 344.94 194.23 355.08 187.77" style="fill:none;stroke:#263238;stroke-miterlimit:10"></polyline><polyline points="332.49 153.21 339.87 153.21 354.62 140.76" style="fill:none;stroke:#263238;stroke-miterlimit:10"></polyline><polyline points="412.69 101.59 408.54 101.59 404.39 109.42" style="fill:none;stroke:#263238;stroke-miterlimit:10"></polyline><polyline points="401.63 47.2 394.25 47.2 382.73 57.34" style="fill:none;stroke:#263238;stroke-miterlimit:10"></polyline><polyline points="350.47 46.74 357.84 46.74 361.53 50.43" style="fill:none;stroke:#263238;stroke-miterlimit:10"></polyline><line x1="364.76" y1="220.5" x2="382.73" y2="220.5" style="fill:none;stroke:#263238;stroke-miterlimit:10"></line><line x1="347.7" y1="224.18" x2="397.94" y2="224.18" style="fill:none;stroke:#263238;stroke-miterlimit:10"></line></g><g id="freepik--Characters--inject-2"><path d="M284.35,164.85s.44,26.36-.88,27.24-6.87,7.76-14,3.11-3.1-17.06-2.88-23.49,8.42-8.64,10.19-9.08S284.35,164.85,284.35,164.85Z" style="fill:#b2b2b2;stroke:#263238;stroke-miterlimit:10"></path><path d="M284.35,164.85s-5.76-2.66-7.53-2.22-10,2.66-10.19,9.08c-.17,4.92-2.54,13.32-.47,19.09l4.53-.93L274,170.48l10.44-.48C284.39,167,284.35,164.85,284.35,164.85Z" style="fill:#263238;stroke:#263238;stroke-miterlimit:10"></path><path d="M176.94,456.17S156.42,469.74,155.79,472a12.19,12.19,0,0,0,0,5.05h41.34V464.69S183.25,456.49,176.94,456.17Z" style="fill:#fff;stroke:#263238;stroke-miterlimit:10"></path><path d="M257.45,456.17S278,469.74,278.59,472a12.19,12.19,0,0,1,0,5.05H237.25V464.69S251.13,456.49,257.45,456.17Z" style="fill:#fff;stroke:#263238;stroke-miterlimit:10"></path><path d="M179.78,232.33,176.31,333l1.57,109s-3.15,5-3.15,6.63.63,8.2.63,8.2,3.47.95,7.89,2.53,13.57,6.94,13.57,6.94,2.84-7.57,3.79-11-1-11.36-1-13.57,7.89-47.58,7.89-47.58l13.88-116.93,8.21,120.09,5.05,47.26s-2.53,7.26-2.21,9.16S236.9,465,236.9,465L262.46,460v-7.89l-2.21-7.89L259,432.82V347.2l.63-74.47L259,239Z" style="fill:#7E57C2;stroke:#263238;stroke-miterlimit:10"></path><path d="M179.78,232.33l-.66,19c4.25,1.49,41.37,13.82,80.17,3.78L259,239Z" style="fill:#263238;stroke:#263238;stroke-miterlimit:10"></path><line x1="254.5" y1="433.8" x2="253.18" y2="340" style="fill:none;stroke:#263238;stroke-miterlimit:10"></line><line x1="255.16" y1="439.09" x2="255.82" y2="445.69" style="fill:none;stroke:#263238;stroke-miterlimit:10"></line><path d="M190.52,394.84c-2,17.2-4.72,41.88-4.72,43.59,0,2.64,5.94,11.89,5.94,11.89l-5.28,1.32,1.32,4" style="fill:none;stroke:#263238;stroke-miterlimit:10"></path><path d="M192.41,378.32s-.3,2.54-.76,6.59" style="fill:none;stroke:#263238;stroke-miterlimit:10"></path><path d="M155.56,473.21a13.66,13.66,0,0,0,.23,3.79h41.34v-3.79Z" style="fill:#fff;stroke:#000;stroke-miterlimit:10"></path><path d="M237.25,477h41.34a13.77,13.77,0,0,0,.25-3.51H237.25Z" style="fill:#fff;stroke:#000;stroke-miterlimit:10"></path><path d="M226.82,104.22s-37.55,6.06-41.07,6.65a18.63,18.63,0,0,0-6.26,2c-.58.39-4.3,66.68-4.1,67.65s1.72,67.91,1.72,67.91,29.33,7.23,48.3,7a267.61,267.61,0,0,0,35-2.73l6.1-60.08L271,168l25.23-1.17s-10.76-34.62-11.34-37.16S264,117.91,258.3,115.17s-20.14-8.41-20.14-8.41Z" style="fill:#7E57C2;stroke:#263238;stroke-miterlimit:10"></path><polyline points="225.07 119.46 242.54 146.65 257.52 118.11" style="fill:none;stroke:#263238;stroke-miterlimit:10"></polyline><line x1="218.8" y1="109.7" x2="221.5" y2="113.9" style="fill:none;stroke:#263238;stroke-miterlimit:10"></line><polygon points="271.01 167.97 280.98 136.88 274.33 167.97 271.01 167.97" style="fill:#263238;stroke:#263238;stroke-miterlimit:10"></polygon><path d="M281.38,76.65a3,3,0,0,0,1.76-2.35,19.61,19.61,0,0,0-3.72-15.06c-5.08-6.84-16-12.71-26.59-9.19S237.57,63.94,237,69.22s-2,14.86-2,14.86l-11.15,21.71,19,28.94,12.91-23.08s-5.87-8.6-8-16.23,4.11-12.32,10.95-16.82,12.52-5.08,14.86-4.1A64.45,64.45,0,0,0,281.38,76.65Z" style="fill:#b2b2b2;stroke:#263238;stroke-miterlimit:10"></path><polygon points="240.75 97.08 250.36 120.64 256.37 110.54 240.75 97.08" style="fill:#263238;stroke:#263238;stroke-miterlimit:10"></polygon><path d="M258.69,78.6c6.85-4.49,12.52-5.08,14.86-4.1a64.45,64.45,0,0,0,7.83,2.15,3,3,0,0,0,1.76-2.35,19.61,19.61,0,0,0-3.72-15.06c-5.08-6.84-16-12.71-26.59-9.19S237.57,63.94,237,69.22c-.38,3.37-1.07,8.49-1.53,11.76l14.16,5.16C251.76,83.32,255.14,80.94,258.69,78.6Z" style="fill:#263238;stroke:#263238;stroke-miterlimit:10"></path><path d="M244,79.78s3.32.58,5.08-1.18-1-3.91,2.93-5.08,7.63.59,8.41-2,2-6.64,3.91-7.82,11.34,4.89,14.86,7.43,2.35,4.89.79,10.56-3.13,7.43-4.89,7.82-2.74,1.37-2.74,3.92.59,6.06-.78,7.43-5.67,1.17-5.67,1.17a93.73,93.73,0,0,1-5.48,9c-1.76,2.15-5.47,2.15-8.41.19S240.31,99.14,239.33,95s.39-8,1.18-10.36S244,79.78,244,79.78Z" style="fill:#b2b2b2;stroke:#263238;stroke-miterlimit:10"></path><path d="M245.2,81.34s-.2-5.86-3.72-6.65-7.23,6.07-5.67,10.37,6.06,2.73,6.06,2.73" style="fill:#b2b2b2;stroke:#263238;stroke-miterlimit:10"></path><path d="M266.71,88.77l-1,2.35s-4.3-1-4.69-3.13" style="fill:none;stroke:#263238;stroke-miterlimit:10"></path><path d="M270.23,87.79s-3.13-4.1-7.43-4.1" style="fill:none;stroke:#263238;stroke-miterlimit:10"></path><path d="M165.17,154.88s-8,26.48-9.53,33.79.22,14.18,3.77,18,25.72,8.43,25.72,8.43l-.91-6.66s-6.42-15.07-6.65-15.95,10-32.69,10-32.69Z" style="fill:#b2b2b2;stroke:#263238;stroke-miterlimit:10"></path><path d="M163,160.4l21.54,6.78c1.68-4.14,3-7.43,3-7.43l-22.37-4.87S164.23,157.15,163,160.4Z" style="fill:#263238;stroke:#263238;stroke-miterlimit:10"></path><path d="M162.16,192.08s5.24-4.23,14.3,1" style="fill:none;stroke:#263238;stroke-miterlimit:10"></path><path d="M183.21,111.65s-2.93-2.34-6.84,3.91-18.58,40.68-18.58,40.68l35,9.77,2-29.52" style="fill:#7E57C2;stroke:#263238;stroke-miterlimit:10"></path><path d="M256.2,263.11s-23.77-1.95-38.59,1.12a182.67,182.67,0,0,0-23.21,6.15s-7.83.56-10.62,1.68a50.07,50.07,0,0,1-8.11,2s-27.12,3.91-33.83,5.31S122,281,122,281l-7-14.82c-2.23-4.75-4.19-12.86-6.15-10.63s-3.35,14.82-2.79,19.58,2,11.18,1.67,13.42-.84,4.75,0,5.59,4.76,1.4,5.6,1.4H285S267.1,264,256.2,263.11Z" style="fill:#fff;stroke:#263238;stroke-miterlimit:10"></path><path d="M203.91,267.49v28.06H285s-17.9-31.6-28.8-32.44c0,0-23.77-1.95-38.59,1.12C212.13,265.37,207.53,266.51,203.91,267.49Z" style="fill:#263238;stroke:#263238;stroke-miterlimit:10"></path><path d="M420.88,257.8s-9.15-.94-11-2.84-5.68-7.25-6.63-6-4.73,5.36-4.73,5.36-6-2.78-9.52-.65-4.37,12.65-4.37,12.65a15.24,15.24,0,0,1-9.47-.32c-4.73-1.89-26.82-13.57-41.34-15.15s-31.56,4.1-35.66,4.42-12.62.32-12.62.32V295h95.3s4.11-1.89,4.74-4.73a4,4,0,0,1,3.39-3.4c.95-.32,3.44-.33,6.28,2.82s8.63,5,13.05,5.63,15.78,0,18.62-2.21,5.68-8.84,5.68-8.84,7.26-1.26,7.57-4.73,1.27-7.57,0-9.15a5.37,5.37,0,0,0-3.78-1.58s4.1-7.26,1.89-9.78-6.94-2.84-8.21-3.16S424.35,248,420.88,257.8Z" style="fill:#fff;stroke:#263238;stroke-miterlimit:10"></path><path d="M440.13,279.58c.32-3.47,1.27-7.57,0-9.15a5.37,5.37,0,0,0-3.78-1.58s4.1-7.26,1.89-9.78-6.94-2.84-8.21-3.16-5.68-7.89-9.15,1.89c0,0,6,5.37,4.11,12.31s-5.37,7.89-6.63,6-3.79-2.53-5.05-.95-9.78.63-9.47,1.58,4.1,4.73,1.58,6.94-9.15-.63-10.41-2.84a33.46,33.46,0,0,1-1.9-3.78l-6.06,9.85a28,28,0,0,1,3.45-.32c1-.3,1.21-1.38,3.24.88,2.84,3.16,10.1,7.26,14.52,7.89s15.78,0,18.62-2.21,5.68-8.84,5.68-8.84S439.82,283.05,440.13,279.58Z" style="fill:#263238;stroke:#263238;stroke-miterlimit:10"></path><path d="M414.89,260.33s1.57,2.52-.32,6.63" style="fill:#fff;stroke:#263238;stroke-miterlimit:10"></path><path d="M410.78,260l-2.84-.94s-.31,2.84-.31,4.73" style="fill:#fff;stroke:#263238;stroke-miterlimit:10"></path><path d="M384.53,290.36c1-4.71,3.77-7.22-1.88-15.7A40.1,40.1,0,0,0,375,266c-5-2-26.81-13.52-41.21-15.09s-31.56,4.1-35.66,4.42-12.62.32-12.62.32V295h95.08C382.68,293.7,384.19,292.1,384.53,290.36Z" style="fill:#707070;stroke:#263238;stroke-miterlimit:10"></path><path d="M273.44,187.68l-72.37,8.81s-6.68-13.08-9.07-18.69-1.72-11.87-3.23-11.32-2.63,3.73-5,11.23-1.08,13.17-.85,16.49-.53,11.58.51,13.73,3.69,2,9.66,1.55,12.42-.2,12.42-.2,49.59,3.19,50.25,3.19c-1.07,0-3.55,37-3.78,40.6-.41,6.54-.6,13.09-.87,19.64-.2,4.94-2.44,14.4,3,17.41,2.78,1.55,7,1.5,10.08,1.76,8.6.73,18.52,1.65,27-.2a7.52,7.52,0,0,0,2-.56c4.94-2.6,3.11-10.71,2.19-14.95-3-13.87-4.87-28-6.67-42-1-8.06-2.09-16.12-3.4-24.13-.74-4.53-1.11-10-3.19-14.18-1-2-1.79-3.52-2.42-4.69A6.68,6.68,0,0,0,273.44,187.68Z" style="fill:#fff;stroke:#263238;stroke-miterlimit:10"></path><path d="M255.77,212.47s.3.33,9.74-2.42" style="fill:none;stroke:#263238;stroke-miterlimit:10"></path><path d="M288.73,234.17q-.37-3-.77-6H253.83c-.89,10.56-1.71,22.88-1.84,24.87-.41,6.54-.6,13.09-.87,19.64-.2,4.94-2.44,14.4,3,17.41,2.78,1.55,7,1.5,10.08,1.76,8.6.73,18.52,1.65,27-.2a7.52,7.52,0,0,0,2-.56c4.94-2.6,3.11-10.71,2.19-14.95C292.41,262.3,290.53,248.22,288.73,234.17Z" style="fill:#263238;stroke:#263238;stroke-miterlimit:10"></path><path d="M368.48,272.1s-38.14,4.12-43.9,4.46-14.75-.69-21.95,1-29.51,4.8-29.51,4.8-15.84-1-19.43-.68-12.24,10.63-12.24,10.63H376.76s10.08-4.46,9.72-11.32S380,268.33,368.48,272.1Z" style="fill:#fff;stroke:#263238;stroke-miterlimit:10"></path><path d="M341.13,275v17.35h35.63s10.08-4.46,9.72-11.32-6.48-12.69-18-8.92C368.48,272.1,353.69,273.7,341.13,275Z" style="fill:#707070;stroke:#263238;stroke-miterlimit:10"></path><path d="M274.59,191.23s6.81-8.56,8.41-7.61,1.16,3.12.52,4.1-6.46,5.16-7.57,5.48S273.7,192.74,274.59,191.23Z" style="fill:#b2b2b2;stroke:#263238;stroke-miterlimit:10"></path><path d="M281.47,201.36s5.59-7,6.91-6.26.95,2.57.42,3.37a29.93,29.93,0,0,1-6.22,4.51C281.68,203.24,280.74,202.61,281.47,201.36Z" style="fill:#b2b2b2;stroke:#263238;stroke-miterlimit:10"></path><path d="M278.88,198.77s6.8-8.56,8.4-7.61,1.17,3.12.52,4.1-6.46,5.16-7.56,5.47S278,200.28,278.88,198.77Z" style="fill:#b2b2b2;stroke:#263238;stroke-miterlimit:10"></path><path d="M275.29,195.89s7.75-9.75,9.57-8.66,1.32,3.56.59,4.66-7.36,5.88-8.61,6.24S274.27,197.62,275.29,195.89Z" style="fill:#b2b2b2;stroke:#263238;stroke-miterlimit:10"></path><path d="M171.67,202.1s.16.15.42.42c.93,1,3.14,3.48,3.77,5.68.8,2.82,1.41,4.64,2,4.84s5.44,1.21,6.85-1.61S178.28,201,178.28,201,172.11,200.22,171.67,202.1Z" style="fill:#b2b2b2;stroke:#263238;stroke-miterlimit:10"></path><path d="M181.39,199.21a44.1,44.1,0,0,1-6.48-.9c-1.62-.54-3.24,1.8-3.24,3.79s9.54,1.8,11,.36S183.55,199.75,181.39,199.21Z" style="fill:#b2b2b2;stroke:#263238;stroke-miterlimit:10"></path><path d="M181.23,200.54s-6.64,11.07-5.22,12.66,3.48.31,4.27-.8,3.33-9.48,3.33-10.91S182.5,199,181.23,200.54Z" style="fill:#b2b2b2;stroke:#263238;stroke-miterlimit:10"></path><path d="M193.41,205.27s-5.46,9.1-4.29,10.4,2.86.26,3.51-.65a42.16,42.16,0,0,0,2.74-9C195.37,204.88,194.46,204,193.41,205.27Z" style="fill:#b2b2b2;stroke:#263238;stroke-miterlimit:10"></path><path d="M190.06,203.07s-6.65,11.06-5.22,12.65,3.48.31,4.27-.79,3.32-9.49,3.32-10.92S191.32,201.48,190.06,203.07Z" style="fill:#b2b2b2;stroke:#263238;stroke-miterlimit:10"></path><path d="M186.13,199.77s-7.57,12.6-5.95,14.4,4,.36,4.87-.9,3.78-10.8,3.78-12.42S187.57,198,186.13,199.77Z" style="fill:#b2b2b2;stroke:#263238;stroke-miterlimit:10"></path><rect x="94.74" y="289.46" width="184.85" height="32.62" rx="5.74" style="fill:#474747;stroke:#263238;stroke-miterlimit:10"></rect><rect x="279.59" y="289.46" width="184.85" height="32.62" rx="5.74" style="fill:#474747;stroke:#263238;stroke-miterlimit:10"></rect><rect x="106.16" y="329.15" width="10.33" height="147.85" style="fill:#919191;stroke:#263238;stroke-miterlimit:10"></rect><rect x="106.16" y="329.15" width="10.33" height="14.52" style="fill:#263238;stroke:#263238;stroke-miterlimit:10"></rect><rect x="437.8" y="329.15" width="10.33" height="147.85" style="fill:#919191;stroke:#263238;stroke-miterlimit:10"></rect><rect x="437.8" y="329.15" width="10.33" height="14.52" style="fill:#263238;stroke:#263238;stroke-miterlimit:10"></rect><rect x="274.7" y="329.15" width="10.33" height="147.85" style="fill:#919191;stroke:#263238;stroke-miterlimit:10"></rect><rect x="274.7" y="329.15" width="10.33" height="14.52" style="fill:#263238;stroke:#263238;stroke-miterlimit:10"></rect><rect x="92.82" y="318.2" width="373.55" height="16.46" style="fill:#919191;stroke:#263238;stroke-miterlimit:10"></rect></g><g id="freepik--Floor--inject-2"><line x1="9" y1="477" x2="480" y2="477" style="fill:none;stroke:#263238;stroke-miterlimit:10"></line></g></svg>